<?xml version="1.0" standalone="no"?>
<!DOCTYPE svg PUBLIC "-//W3C//DTD SVG 20010904//EN"
 "http://www.w3.org/TR/2001/REC-SVG-20010904/DTD/svg10.dtd">
<svg version="1.0" xmlns="http://www.w3.org/2000/svg"
 width="263.000000pt" height="263.000000pt" viewBox="0 0 263.000000 263.000000"
 preserveAspectRatio="xMidYMid meet">

<g transform="translate(0.000000,263.000000) scale(0.100000,-0.100000)"
fill="#FAFAFA" stroke="#AAAAAA" stroke-width="30" stroke-linejoin="round">
<path d="M1705 2254 c-138 -151 -251 -281 -253 -287 -1 -7 4 -21 11 -31 13
-18 23 -16 261 33 136 28 256 56 268 62 20 11 20 15 13 247 -4 131 -9 240 -12
245 -15 25 -62 -18 -288 -269z"/>
<path d="M327 2333 c-15 -14 -4 -51 83 -275 50 -128 90 -243 90 -255 0 -13 6
-26 13 -29 17 -6 538 103 551 116 27 27 -20 60 -362 253 -193 108 -355 197
-360 197 -5 0 -12 -3 -15 -7z"/>
<path d="M1500 1844 c-261 -57 -582 -127 -713 -156 -204 -44 -240 -54 -248
-72 -8 -16 19 -125 111 -461 66 -242 125 -444 130 -449 12 -12 390 83 397 101
3 7 -16 93 -42 191 -26 97 -48 181 -49 185 -1 8 320 99 912 261 94 26 103 31
118 61 14 31 12 41 -38 236 -51 195 -54 204 -78 206 -14 1 -239 -45 -500 -103z"/>
<path d="M1924 1332 c-111 -31 -212 -64 -225 -73 l-23 -16 51 -176 c28 -98 48
-177 44 -178 -3 0 -220 -60 -481 -132 -458 -127 -475 -133 -478 -157 -4 -31
112 -453 125 -457 13 -5 1445 366 1456 376 4 4 -6 57 -23 117 -17 60 -70 253
-118 429 -76 280 -90 320 -107 322 -11 1 -111 -24 -221 -55z"/>
</g>
</svg>
