# Blender 4.5.4 LTS
# www.blender.org
mtllib ыыы.mtl
o Икосфера
v 0.899811 10.422360 0.200167
v 5.739051 -3.546973 4.169616
v -2.192080 -3.546976 6.746642
v -7.093844 -3.546942 0.000000
v -2.192080 -3.546976 -6.746642
v 5.739051 -3.546973 -4.169616
v 2.192080 3.546976 6.746642
v -5.739051 3.546973 4.169616
v -5.739051 3.546973 -4.169616
v 2.192080 3.546976 -6.746642
v 7.093844 3.546942 0.000000
v -0.000001 -9.537661 0.000000
v -1.288462 -6.746683 3.965546
v 3.373306 -6.746681 2.450821
v 2.084857 -4.169713 6.416407
v 6.746631 -4.169700 0.000000
v 3.373306 -6.746681 -2.450821
v -4.169651 -6.746661 0.000000
v -5.458145 -4.169702 3.965559
v -1.288462 -6.746683 -3.965546
v -5.458145 -4.169702 -3.965559
v 2.084857 -4.169713 -6.416407
v 7.542999 0.000000 2.450831
v 7.542999 0.000000 -2.450831
v 0.000000 0.000000 7.931167
v 4.661826 0.000000 6.416447
v -7.542999 0.000000 2.450831
v -4.661826 0.000000 6.416447
v -4.661826 0.000000 -6.416447
v -7.542999 0.000000 -2.450831
v 4.661826 0.000000 -6.416447
v 0.000000 0.000000 -7.931167
v 5.458145 4.169702 3.965559
v -2.084857 4.169713 6.416407
v -6.746631 4.169700 0.000000
v -2.084857 4.169713 -6.416407
v 5.458145 4.169702 -3.965559
v 1.288462 6.746682 3.965546
v 4.169651 6.746661 0.000000
v -3.373306 6.746681 2.450821
v -3.373306 6.746681 -2.450821
v 1.288462 6.746682 -3.965546
v 0.000001 9.452528 0.374382
v 1.288463 8.268043 3.965546
v 4.169652 8.268022 -0.000000
v -3.373305 8.268042 2.450821
v -3.373305 8.268042 -2.450821
v 1.288463 8.268043 -3.965546
v -1.288463 -8.353176 3.965546
v 3.373305 -8.353174 2.450821
v 3.373305 -8.353174 -2.450821
v -4.169652 -8.353155 0.000000
v -1.288463 -8.353176 -3.965546
v 2.188274 9.237875 4.165713
v 5.069462 9.237854 0.200167
v -0.633351 10.064668 -0.000000
v -4.006657 8.880181 2.450821
v -4.006657 8.880181 -2.450821
v -0.046347 9.879657 -0.478834
v -3.419652 8.695170 -2.929655
v 1.242115 8.695171 -4.444380
v 0.743828 10.162305 -0.530816
v 4.913479 8.977798 -0.530816
v 2.032291 8.977819 -4.496363
v -0.101346 10.386518 0.686289
v 1.187117 9.202033 4.651834
v -3.474651 9.202032 3.137110
v 0.078399 -10.260174 -1.161805
v 3.451704 -9.075687 -3.612626
v -1.210064 -9.075689 -5.127351
v 1.188274 -10.955115 0.000000
v 4.561579 -9.770629 2.450821
v 4.561579 -9.770629 -2.450821
v -0.124962 -10.961167 0.984159
v -1.413424 -9.776683 4.949705
v 3.248343 -9.776681 3.434980
v -4.294613 -9.776662 0.984159
v -0.529266 -10.382091 -0.957768
v -4.698917 -9.197585 -0.957768
v -1.817728 -9.197606 -4.923314
v -6.529859 3.835673 4.403830
v -8.333807 0.288700 2.685045
v -7.537438 4.458400 0.234214
v -5.930051 3.665019 -4.559780
v -4.852827 0.118046 -6.806612
v -0.191000 0.118046 -8.321331
v -2.275857 4.287759 -6.806571
v -2.453076 -3.682044 7.247889
v -5.719141 -4.304770 4.466807
v -0.260996 -0.135068 8.432415
v -4.922822 -0.135068 6.917695
v 2.485609 3.658016 7.030926
v 7.836529 0.111041 2.735115
v 4.955356 0.111041 6.700731
v 5.751675 4.280743 4.249844
v 6.397193 -3.722729 -4.497669
v 7.404773 -4.345456 -0.328053
v 8.201141 -0.175756 -2.778884
v 5.319968 -0.175756 -6.744500
vn 0.3090 -0.0000 -0.9511
vn 0.7002 -0.6617 0.2680
vn -0.8090 -0.0000 0.5878
vn 1.0000 -0.0000 -0.0000
vn 0.3090 -0.0000 0.9511
vn 0.9050 -0.3304 0.2680
vn 0.0247 -0.3304 0.9435
vn -0.8897 -0.3304 0.3151
vn -0.5746 -0.3304 -0.7488
vn 0.5346 -0.3304 -0.7779
vn 0.8026 -0.1256 0.5831
vn -0.0728 0.9719 0.2240
vn -0.9921 -0.1256 -0.0000
vn -0.3066 -0.1256 -0.9435
vn -0.2908 -0.9541 -0.0722
vn 0.4089 0.6617 0.6284
vn -0.4713 0.6617 0.5831
vn -0.7002 0.6617 -0.2680
vn 0.0385 0.6617 -0.7488
vn 0.7240 0.6617 -0.1947
vn -1.0000 -0.0000 -0.0000
vn 0.4911 0.7947 -0.3568
vn 0.4089 0.6617 -0.6284
vn 0.8090 -0.0000 0.5878
vn -0.1876 0.7947 -0.5773
vn -0.4713 0.6617 -0.5831
vn -0.3090 -0.0000 -0.9511
vn -0.6071 0.7947 -0.0000
vn -0.7002 0.6617 0.2680
vn -0.3090 -0.0000 0.9511
vn -0.1876 0.7947 0.5773
vn 0.0385 0.6617 0.7488
vn 0.8090 -0.0000 -0.5878
vn 0.4911 0.7947 0.3568
vn 0.7240 0.6617 0.1947
vn 0.8897 0.3304 -0.3151
vn 0.7947 0.1876 -0.5773
vn 0.5746 0.3304 -0.7488
vn -0.0247 0.3304 -0.9435
vn -0.0818 -0.9643 -0.2517
vn -0.8523 -0.4390 0.2844
vn -0.9050 0.3304 -0.2680
vn -0.9822 0.1876 -0.0000
vn -0.3932 -0.4089 -0.8235
vn -0.5346 0.3304 0.7779
vn -0.3035 0.1876 0.9342
vn -0.0247 0.3304 0.9435
vn 0.2141 -0.9643 0.1556
vn -0.5339 -0.4390 0.7227
vn 0.8897 0.3304 0.3151
vn 0.3066 0.1256 -0.9435
vn 0.3035 -0.1876 -0.9342
vn 0.0247 -0.3304 -0.9435
vn -0.8026 0.1256 -0.5831
vn -0.7947 -0.1876 -0.5773
vn -0.8897 -0.3304 -0.3151
vn -0.8026 0.1256 0.5831
vn -0.7947 -0.1876 0.5773
vn -0.8612 0.3695 -0.3489
vn 0.3066 0.1256 0.9435
vn 0.3035 -0.1876 0.9342
vn 0.5346 -0.3304 0.7779
vn 0.9921 0.1256 -0.0000
vn 0.9822 -0.1876 -0.0000
vn 0.1905 0.9719 -0.1384
vn 0.4713 -0.6617 -0.5831
vn 0.1876 -0.7947 -0.5773
vn -0.0385 -0.6617 -0.7488
vn -0.4089 -0.6617 -0.6284
vn -0.4911 -0.7947 -0.3568
vn -0.7240 -0.6617 -0.1947
vn -0.7240 -0.6617 0.1947
vn -0.4911 -0.7947 0.3568
vn -0.4089 -0.6617 0.6284
vn 0.7002 -0.6617 -0.2680
vn 0.6071 -0.7947 -0.0000
vn -0.8090 -0.0000 -0.5878
vn -0.0385 -0.6617 0.7488
vn 0.1876 -0.7947 0.5773
vn 0.4713 -0.6617 0.5831
vn 0.4963 -0.7897 -0.3606
vn -0.2079 -0.7399 -0.6398
vn -0.6950 -0.7190 -0.0000
vn -0.2493 -0.5909 0.7673
vn 0.6098 -0.6572 0.4430
vn 0.2614 0.5333 0.8045
vn -0.1569 -0.5523 -0.8188
vn -0.5247 0.7612 -0.3812
vn 0.1666 0.8423 -0.5126
vn 0.7663 0.6424 -0.0000
vn 0.2680 0.9435 0.1947
vn -0.6680 0.6141 0.4203
vn -0.0325 0.0435 -0.9985
vn -0.3313 0.9435 -0.0000
vn 0.5220 0.2954 -0.8001
vn 0.3163 0.5611 0.7649
vn -0.1024 0.9435 -0.3151
vn 0.9108 0.3734 0.1761
vn -0.5934 0.6581 0.4634
vn 0.2680 0.9435 -0.1947
vn -0.8037 0.4579 -0.3800
vn 0.2013 0.5843 0.7862
vn -0.1024 0.9435 0.3151
vn -0.6030 0.3241 -0.7290
vn 0.9402 0.2341 -0.2472
vn 0.1024 -0.9435 -0.3151
vn 0.5727 -0.6783 0.4604
vn -0.9051 -0.3858 0.1788
vn 0.3313 -0.9435 -0.0000
vn -0.4528 -0.3796 -0.8067
vn -0.4528 -0.3796 0.8067
vn 0.1024 -0.9435 0.3151
vn -0.2680 -0.9435 0.1947
vn -0.7301 0.4308 0.5304
vn 0.6194 -0.4825 -0.6193
vn -0.2680 -0.9435 -0.1947
vn 0.9192 -0.1773 -0.3516
vn -0.1933 -0.6805 0.7068
vn -0.9050 0.3304 0.2680
vn 0.3563 0.9328 0.0532
vn 0.0883 -0.4704 0.8780
vn -0.3035 0.1876 -0.9342
vn -0.5346 0.3304 -0.7779
vn 0.0115 0.9586 0.2844
vn 0.8260 0.5044 -0.2517
vn -0.3066 -0.1256 0.9435
vn -0.5746 -0.3304 0.7488
vn 0.2777 -0.9541 -0.1125
vn 0.7824 -0.5685 0.2542
vn 0.5746 0.3304 0.7488
vn 0.7947 0.1876 0.5773
vn -0.2669 0.9586 -0.0988
vn 0.4946 0.5044 -0.7077
vn 0.8026 -0.1256 -0.5831
vn 0.9050 -0.3304 -0.2680
vn -0.4836 -0.5685 -0.6656
vn 0.4917 0.3695 0.7885
vt 0.590909 0.078731
vt 0.500000 0.078731
vt 0.272728 0.157461
vt 0.318182 0.078731
vt 0.363637 0.157461
vt 0.954545 0.078731
vt 0.863636 0.078731
vt 0.409092 0.078731
vt 0.227273 0.078731
vt 0.136365 0.078731
vt 0.318182 0.236191
vt 0.090910 0.157461
vt 0.181819 0.157461
vt 0.136365 0.236191
vt 0.818182 0.157461
vt 0.909091 0.157461
vt 0.863636 0.236191
vt 0.636364 0.157461
vt 0.727273 0.157461
vt 0.681818 0.236191
vt 0.454546 0.157461
vt 0.545455 0.157461
vt 0.500000 0.236191
vt 0.227273 0.236191
vt 0.045455 0.236191
vt 0.772727 0.236191
vt 0.590909 0.236191
vt 0.181819 0.314921
vt 0.272728 0.314921
vt 0.227273 0.393651
vt 0.000000 0.314921
vt 0.090910 0.314921
vt 0.045455 0.393651
vt 0.727273 0.314921
vt 0.818182 0.314921
vt 0.772727 0.393651
vt 0.545455 0.314921
vt 0.636364 0.314921
vt 0.590909 0.393651
vt 0.363637 0.314921
vt 0.454546 0.314921
vt 0.409092 0.393651
vt 0.863636 0.393651
vt 0.500000 0.393651
vt 0.318182 0.393651
vt 0.681818 0.393651
vt 0.909091 0.314921
vt 0.136365 0.393651
vt 0.409092 0.236191
vt 0.954545 0.236191
vt 0.681818 0.078731
vt 0.772727 0.078731
vt 1.000000 0.157461
vt 0.727273 0.000000
vt 0.272728 0.472382
vt 0.090910 0.472382
vt 0.454546 0.472382
vt 0.818182 0.472382
vt 0.636364 0.472382
vt 0.545455 0.000000
vt 0.363637 0.000000
vt 0.181819 0.000000
vt 0.909091 0.000000
s 0
usemtl Material.001
f 20/1/1 17/2/1 51/2/1 53/1/1
f 2/3/2 14/4/2 16/5/2
f 13/6/3 18/7/3 52/7/3 49/6/3
f 17/8/4 14/4/4 50/4/4 51/8/4
f 14/9/5 13/10/5 49/10/5 50/9/5
f 2/3/6 16/5/6 23/11/6
f 3/12/7 15/13/7 25/14/7
f 4/15/8 19/16/8 27/17/8
f 5/18/9 21/19/9 29/20/9
f 6/21/10 22/22/10 31/23/10
f 2/3/11 23/11/11 26/24/11
f 25/14/12 28/25/12 91/25/12 90/14/12
f 4/15/13 27/17/13 30/26/13
f 5/18/14 29/20/14 32/27/14
f 16/5/15 6/21/15 96/21/15 97/5/15
f 7/28/16 33/29/16 38/30/16
f 8/31/17 34/32/17 40/33/17
f 9/34/18 35/35/18 41/36/18
f 10/37/19 36/38/19 42/39/19
f 11/40/20 37/41/20 39/42/20
f 41/36/21 40/43/21 46/43/21 47/36/21
f 39/42/22 37/41/22 42/44/22
f 37/41/23 10/37/23 42/44/23
f 38/30/24 39/45/24 45/45/24 44/30/24
f 42/39/25 36/38/25 41/46/25
f 36/38/26 9/34/26 41/46/26
f 42/39/27 41/46/27 47/46/27 48/39/27
f 41/36/28 35/35/28 40/43/28
f 35/35/29 8/47/29 40/43/29
f 40/33/30 38/48/30 44/48/30 46/33/30
f 40/33/31 34/32/31 38/48/31
f 34/32/32 7/28/32 38/48/32
f 39/42/33 42/44/33 48/44/33 45/42/33
f 38/30/34 33/29/34 39/45/34
f 33/29/35 11/40/35 39/45/35
f 24/49/36 37/41/36 11/40/36
f 24/49/37 31/23/37 37/41/37
f 31/23/38 10/37/38 37/41/38
f 32/27/39 36/38/39 10/37/39
f 32/27/40 29/20/40 85/20/40 86/27/40
f 29/20/41 9/34/41 84/34/41 85/20/41
f 30/26/42 35/35/42 9/34/42
f 30/26/43 27/17/43 35/35/43
f 28/25/45 34/32/45 8/31/45
f 28/25/46 25/14/46 34/32/46
f 25/14/47 7/28/47 34/32/47
f 26/24/48 23/11/48 93/11/48 94/24/48
f 7/28/49 26/24/49 94/24/49 92/28/49
f 23/11/50 11/40/50 33/29/50
f 31/23/51 32/27/51 10/37/51
f 31/23/52 22/22/52 32/27/52
f 22/22/53 5/18/53 32/27/53
f 29/20/54 30/26/54 9/34/54
f 29/20/55 21/19/55 30/26/55
f 21/19/56 4/15/56 30/26/56
f 27/17/57 28/50/57 8/47/57
f 27/17/58 19/16/58 28/50/58
f 28/50/59 19/16/59 89/16/59 91/50/59
f 25/14/60 26/24/60 7/28/60
f 25/14/61 15/13/61 26/24/61
f 15/13/62 2/3/62 26/24/62
f 23/11/63 24/49/63 11/40/63
f 23/11/64 16/5/64 24/49/64
f 17/2/66 22/22/66 6/21/66
f 17/2/67 20/1/67 22/22/67
f 20/1/68 5/18/68 22/22/68
f 20/51/69 21/19/69 5/18/69
f 20/51/70 18/52/70 21/19/70
f 18/52/71 4/15/71 21/19/71
f 18/7/72 19/16/72 4/15/72
f 18/7/73 13/6/73 19/16/73
f 13/6/74 3/53/74 19/16/74
f 16/5/75 17/8/75 6/21/75
f 16/5/76 14/4/76 17/8/76
f 18/52/77 20/51/77 53/51/77 52/52/77
f 13/10/78 15/13/78 3/12/78
f 13/10/79 14/9/79 15/13/79
f 14/9/80 2/3/80 15/13/80
f 8/47/120 35/35/120 83/35/120 81/47/120
f 27/17/121 8/47/121 81/47/121 82/17/121
f 9/34/124 36/38/124 87/38/124 84/34/124
f 36/38/125 32/27/125 86/27/125 87/38/125
f 19/16/128 3/53/128 88/53/128 89/16/128
f 3/12/129 25/14/129 90/14/129 88/12/129
f 33/29/132 7/28/132 92/28/132 95/29/132
f 23/11/133 33/29/133 95/29/133 93/11/133
f 6/21/136 31/23/136 99/23/136 96/21/136
f 24/49/137 16/5/137 97/5/137 98/49/137
usemtl Материал
f 45/42/81 48/44/81 64/44/81 63/42/81
f 48/39/82 47/46/82 60/46/82 61/39/82
f 47/36/83 46/43/83 57/43/83 58/36/83
f 46/33/84 44/48/84 66/48/84 67/33/84
f 44/30/85 45/45/85 55/45/85 54/30/85
f 50/9/86 49/10/86 75/10/86 76/9/86
f 52/52/87 12/54/87 74/54/87 77/52/87
f 52/52/88 53/51/88 80/51/88 79/52/88
f 53/1/89 51/2/89 69/2/89 70/1/89
f 51/8/90 50/4/90 72/4/90 73/8/90
f 54/30/91 55/45/91 1/55/91
f 43/56/92 44/48/92 54/48/92 1/56/92
f 45/42/93 43/57/93 1/57/93 55/42/93
f 58/36/94 57/43/94 56/58/94
f 43/59/95 47/46/95 58/46/95 56/59/95
f 46/33/96 43/56/96 56/56/96 57/33/96
f 61/39/97 60/46/97 59/59/97
f 43/57/98 48/44/98 61/44/98 59/57/98
f 47/46/99 43/59/99 59/59/99 60/46/99
f 63/42/100 64/44/100 62/57/100
f 48/44/101 43/57/101 62/57/101 64/44/101
f 43/57/102 45/42/102 63/42/102 62/57/102
f 67/33/103 66/48/103 65/56/103
f 43/56/104 46/33/104 67/33/104 65/56/104
f 44/48/105 43/56/105 65/56/105 66/48/105
f 68/60/106 70/1/106 69/2/106
f 51/8/107 12/61/107 68/61/107 69/8/107
f 12/54/108 53/51/108 70/51/108 68/54/108
f 72/4/109 71/61/109 73/8/109
f 12/61/110 51/8/110 73/8/110 71/61/110
f 50/9/111 12/62/111 71/62/111 72/9/111
f 74/62/112 76/9/112 75/10/112
f 74/63/113 75/6/113 77/7/113
f 49/6/114 52/7/114 77/7/114 75/6/114
f 12/62/115 50/9/115 76/9/115 74/62/115
f 78/54/116 79/52/116 80/51/116
f 53/51/117 12/54/117 78/54/117 80/51/117
f 12/54/118 52/52/118 79/52/118 78/54/118
usemtl Материал.001
f 35/35/44 27/17/44 82/17/44 83/35/44
f 31/23/65 24/49/65 98/49/65 99/23/65
f 82/17/119 81/47/119 83/35/119
f 86/27/122 85/20/122 87/38/122
f 85/20/123 84/34/123 87/38/123
f 88/12/126 90/14/126 91/25/126
f 89/16/127 88/53/127 91/50/127
f 94/24/130 95/29/130 92/28/130
f 94/24/131 93/11/131 95/29/131
f 96/21/134 99/23/134 98/49/134
f 97/5/135 96/21/135 98/49/135
