<?xml version="1.0" standalone="no"?>
<!DOCTYPE svg PUBLIC "-//W3C//DTD SVG 20010904//EN"
 "http://www.w3.org/TR/2001/REC-SVG-20010904/DTD/svg10.dtd">
<svg version="1.0" xmlns="http://www.w3.org/2000/svg"
 width="263.000000pt" height="263.000000pt" viewBox="0 0 263.000000 263.000000"
 preserveAspectRatio="xMidYMid meet">

<g transform="translate(0.000000,263.000000) scale(0.100000,-0.100000)"
fill="#000000" stroke="none">
<path d="M1705 2254 c-249 -274 -271 -305 -247 -342 7 -10 50 -6 218 22 115
20 240 40 278 45 48 7 76 17 92 32 24 22 24 23 24 260 l0 237 -31 11 c-74 25
-67 31 -334 -265z"/>
<path d="M327 2333 c-15 -14 -4 -51 83 -275 50 -128 90 -242 90 -253 0 -12 6
-29 13 -38 11 -16 32 -14 306 28 180 27 298 50 303 57 19 31 7 57 -37 77 -16
7 -188 102 -382 212 -193 109 -355 199 -360 199 -6 0 -13 -3 -16 -7z"/>
<path d="M2055 1964 c-27 -7 -376 -84 -775 -169 -703 -151 -750 -164 -750
-196 0 -20 242 -885 250 -893 15 -15 500 113 500 133 0 3 -20 82 -45 176 -24
93 -43 170 -42 170 1 1 202 57 447 125 535 148 581 162 593 182 7 11 -5 75
-42 224 -52 212 -68 265 -80 263 -3 -1 -28 -7 -56 -15z"/>
<path d="M2220 1411 c-111 -23 -499 -135 -520 -151 l-24 -18 51 -176 c28 -97
48 -176 44 -177 -3 0 -220 -60 -481 -132 -459 -128 -475 -133 -478 -157 -2
-14 22 -115 52 -225 30 -110 57 -213 60 -229 3 -16 9 -33 14 -38 6 -6 316 69
786 189 724 185 777 199 772 218 -33 143 -232 905 -236 904 -3 -1 -21 -5 -40
-8z"/>
</g>
</svg>
