<?xml version="1.0" standalone="no"?>
<!DOCTYPE svg PUBLIC "-//W3C//DTD SVG 20010904//EN"
 "http://www.w3.org/TR/2001/REC-SVG-20010904/DTD/svg10.dtd">
<svg version="1.0" xmlns="http://www.w3.org/2000/svg"
 width="263.000000pt" height="263.000000pt" viewBox="0 0 263.000000 263.000000"
 preserveAspectRatio="xMidYMid meet">

<g transform="translate(0.000000,263.000000) scale(0.100000,-0.100000)"
fill="#FAFAFA" stroke="none">
<path d="M1588 2273 c-306 -248 -508 -419 -508 -430 0 -32 37 -34 277 -13 130
12 241 24 246 27 5 3 7 14 4 24 -3 10 19 112 49 225 30 114 53 213 50 221 -10
25 -35 13 -118 -54z"/>
<path d="M274 2135 c-4 -9 14 -99 40 -200 25 -102 46 -194 46 -205 0 -11 6
-23 13 -26 7 -2 119 7 248 21 240 26 265 33 257 73 -3 15 -564 351 -586 352
-7 0 -15 -7 -18 -15z"/>
<path d="M1564 1780 c-6 -6 -262 -40 -570 -76 -307 -36 -563 -69 -567 -74 -5
-4 8 -158 29 -341 20 -184 37 -347 36 -362 -1 -15 5 -30 12 -33 7 -3 83 4 167
16 156 21 180 30 179 69 -1 9 -9 75 -19 146 -10 72 -17 132 -15 134 3 3 174
26 382 52 293 37 405 55 502 82 69 19 208 56 308 82 115 30 186 54 189 63 8
20 -29 213 -41 218 -9 3 -533 34 -573 34 -5 0 -14 -5 -19 -10z"/>
<path d="M1910 1400 c-162 -49 -303 -94 -313 -100 -10 -6 -88 -18 -175 -26
-86 -9 -161 -20 -166 -24 -4 -5 3 -75 17 -157 14 -81 23 -150 22 -151 -2 -2
-176 -26 -387 -53 -211 -27 -389 -51 -396 -54 -8 -3 -11 -20 -8 -52 5 -66 58
-366 66 -376 4 -5 273 24 597 62 l591 71 158 162 c88 90 214 219 282 288 92
95 122 132 121 150 0 14 -19 97 -42 185 -30 112 -46 161 -57 162 -8 1 -148
-38 -310 -87z"/>
</g>
</svg>
