<?xml version="1.0" standalone="no"?>
<!DOCTYPE svg PUBLIC "-//W3C//DTD SVG 20010904//EN"
 "http://www.w3.org/TR/2001/REC-SVG-20010904/DTD/svg10.dtd">
<svg version="1.0" xmlns="http://www.w3.org/2000/svg"
 width="263.000000pt" height="263.000000pt" viewBox="0 0 263.000000 263.000000"
 preserveAspectRatio="xMidYMid meet">

<g transform="translate(0.000000,263.000000) scale(0.100000,-0.100000)"
fill="#FAFAFA" stroke="#AAAAAA" stroke-width="30" stroke-linejoin="round">
<path d="M1872 2446 c-82 -102 -120 -142 -216 -220 -52 -42 -216 -242 -216
-263 0 -17 33 -33 68 -33 16 0 92 18 168 41 111 33 160 42 247 46 98 5 107 7
107 25 0 11 -8 32 -18 46 -29 41 -32 67 -17 155 7 45 16 120 20 167 6 78 4 88
-15 113 -12 15 -27 27 -34 27 -6 0 -49 -47 -94 -104z m94 -38 c-4 -40 -13
-112 -21 -159 -12 -79 -10 -137 8 -166 4 -6 -23 -13 -66 -17 -40 -3 -84 -9
-99 -12 -26 -6 -28 -4 -28 24 0 17 10 56 22 87 17 46 19 61 10 76 -11 17 -5
28 51 92 34 39 75 89 91 110 16 20 31 37 33 37 3 0 2 -33 -1 -72z m-216 -183
c0 -2 -10 -30 -21 -61 -14 -37 -20 -69 -16 -94 l5 -38 -100 -27 c-55 -14 -102
-25 -104 -23 -7 7 134 175 177 211 41 34 59 44 59 32z"/>
<path d="M326 2328 c-9 -28 -2 -57 32 -143 28 -71 37 -110 42 -182 6 -91 7
-93 53 -153 26 -33 47 -67 47 -75 0 -10 10 -15 30 -15 38 0 264 36 346 55 85
19 214 80 214 100 0 11 -89 59 -283 154 -278 135 -378 193 -426 245 -26 28
-49 34 -55 14z m244 -201 c47 -25 165 -82 263 -128 l177 -82 -41 -19 c-43 -19
-127 -42 -194 -52 l-40 -7 45 26 c51 30 60 41 60 72 0 16 -13 30 -43 47 -44
26 -267 94 -320 99 -28 2 -33 7 -54 67 -12 36 -22 69 -23 73 0 4 19 -5 43 -21
23 -16 80 -50 127 -75z m18 -122 c134 -38 192 -60 192 -72 0 -4 -28 -24 -62
-43 -34 -19 -63 -42 -65 -51 -3 -11 -21 -18 -55 -22 -46 -6 -53 -4 -72 20 -61
75 -76 106 -76 155 0 26 4 48 9 48 5 0 63 -16 129 -35z"/>
<path d="M1835 1933 c-347 -120 -458 -143 -740 -153 -216 -7 -236 -9 -330 -38
-178 -55 -265 -92 -265 -113 0 -10 32 -67 71 -126 85 -128 133 -228 147 -304
11 -60 7 -87 -28 -189 -16 -48 -21 -78 -16 -115 6 -56 70 -193 93 -202 9 -3
48 4 87 17 46 15 93 22 133 22 52 -1 73 4 130 33 37 19 74 35 81 35 17 0 15
27 -8 94 -12 31 -25 94 -31 139 -6 45 -14 103 -18 130 -8 46 -8 47 19 47 50 0
193 42 394 117 255 94 389 132 494 140 59 4 82 10 82 19 0 8 7 14 16 14 14 0
15 8 9 58 -15 124 -43 199 -89 239 -24 21 -26 30 -26 97 0 68 -2 74 -22 80
-36 9 -45 7 -183 -41z m155 -60 c0 -55 26 -123 48 -123 17 0 44 -63 57 -136 8
-42 15 -80 15 -85 0 -5 -19 -9 -42 -9 -24 -1 -74 -7 -111 -14 -64 -12 -69 -12
-78 6 -7 12 -6 30 1 56 34 116 31 202 -10 282 l-18 35 61 22 c34 12 65 22 70
22 4 1 7 -25 7 -56z m-165 -42 c9 -21 20 -54 24 -72 7 -34 6 -34 -61 -67 -112
-54 -212 -75 -342 -70 -99 3 -118 7 -176 34 -36 17 -76 40 -89 51 l-24 20 85
6 c106 7 276 45 433 96 66 21 123 39 126 40 3 1 14 -17 24 -38z m-705 -136
c20 -19 65 -51 100 -70 36 -19 57 -35 47 -35 -35 0 -264 -83 -339 -122 -83
-43 -148 -100 -168 -147 l-12 -29 -42 83 c-24 46 -67 118 -95 160 -42 60 -50
79 -40 86 20 13 215 76 284 93 33 8 98 15 145 15 83 1 85 1 120 -34z m730 -40
c0 -2 -7 -30 -15 -62 -8 -31 -12 -72 -9 -89 5 -30 4 -32 -28 -39 -18 -4 -130
-43 -248 -87 -249 -93 -340 -118 -422 -118 -70 0 -77 -10 -50 -72 11 -23 22
-78 26 -120 4 -43 15 -110 26 -150 11 -40 20 -76 20 -79 0 -4 -26 -18 -57 -32
-41 -18 -75 -25 -118 -25 -33 0 -88 -9 -123 -20 l-63 -20 -15 23 c-24 37 -54
122 -54 155 0 16 12 60 26 97 14 38 26 89 26 116 1 26 5 47 10 47 4 0 8 18 8
40 0 134 113 211 459 315 102 30 132 35 220 35 113 0 218 22 312 64 55 25 69
30 69 21z"/>
<path d="M2120 1406 c-3 -2 -61 -10 -130 -16 -75 -8 -142 -20 -168 -31 -67
-29 -159 -87 -166 -105 -4 -9 5 -45 19 -79 17 -43 28 -97 34 -171 5 -60 9
-110 8 -110 -1 -1 -81 -32 -177 -68 -136 -51 -202 -71 -297 -86 -112 -18 -344
-67 -435 -91 -28 -7 -38 -15 -38 -29 0 -11 3 -20 8 -20 4 0 7 -26 8 -58 1 -46
12 -83 59 -191 31 -74 60 -155 64 -180 6 -43 8 -46 39 -49 64 -6 448 81 539
123 32 14 80 41 108 59 91 60 211 94 593 165 117 22 218 43 224 47 18 11 2
150 -30 259 -16 55 -59 177 -95 272 -37 95 -76 207 -88 250 -12 43 -25 85 -29
93 -7 15 -41 26 -50 16z m59 -206 c24 -69 45 -135 48 -147 6 -25 -44 -139 -84
-192 l-26 -34 -13 44 c-20 69 -50 90 -136 99 -82 8 -119 24 -162 69 -17 17
-35 31 -40 31 -9 0 -44 112 -49 160 -1 8 28 32 71 56 66 38 83 43 160 49 48 4
107 10 132 14 36 6 46 4 51 -8 3 -9 25 -72 48 -141z m-324 -255 c34 -17 67
-25 103 -25 38 0 57 -5 71 -19 19 -19 41 -80 41 -111 -1 -17 -89 -85 -200
-153 -121 -74 -162 -122 -162 -194 0 -18 -4 -33 -9 -33 -16 0 -114 -49 -178
-89 l-63 -40 -22 31 c-36 53 -97 92 -201 127 -55 18 -112 42 -127 52 -31 22
-61 94 -56 135 3 31 -19 25 263 77 44 8 170 48 280 90 207 78 230 93 186 123
-15 11 -21 26 -21 51 0 35 0 35 23 19 12 -9 45 -28 72 -41z m434 -45 c41 -111
71 -222 77 -284 l6 -62 -128 -23 c-140 -25 -445 -88 -469 -97 -11 -5 -15 1
-15 20 0 38 52 90 154 152 168 104 263 196 317 307 13 26 26 47 30 47 3 0 16
-27 28 -60z m-1289 -286 c0 -50 25 -109 61 -145 28 -28 60 -44 135 -69 55 -18
110 -40 124 -48 38 -24 80 -64 80 -78 0 -8 -50 -24 -127 -42 -137 -33 -304
-65 -307 -60 -1 2 -14 37 -28 78 -14 41 -45 119 -68 173 -31 74 -40 109 -38
140 l3 42 70 17 c94 22 95 22 95 -8z"/>
</g>
</svg>
