<?xml version="1.0" standalone="no"?>
<!DOCTYPE svg PUBLIC "-//W3C//DTD SVG 20010904//EN"
 "http://www.w3.org/TR/2001/REC-SVG-20010904/DTD/svg10.dtd">
<svg version="1.0" xmlns="http://www.w3.org/2000/svg"
 width="263.000000pt" height="263.000000pt" viewBox="0 0 263.000000 263.000000"
 preserveAspectRatio="xMidYMid meet">

<g transform="translate(0.000000,263.000000) scale(0.100000,-0.100000)"
fill="#FAFAFA" stroke="#AAAAAA" stroke-width="30" stroke-linejoin="round">
<path d="M1705 2254 c-138 -151 -251 -281 -253 -287 -1 -7 4 -21 11 -31 13
-18 23 -16 261 33 136 28 256 56 268 62 20 11 20 15 13 247 -4 131 -9 240 -12
245 -15 25 -62 -18 -288 -269z"/>
<path d="M327 2333 c-15 -14 -4 -51 83 -275 50 -128 90 -243 90 -255 0 -13 6
-26 13 -29 17 -6 538 103 551 116 27 27 -20 60 -362 253 -193 108 -355 197
-360 197 -5 0 -12 -3 -15 -7z"/>
<path d="M1500 1844 c-261 -57 -582 -127 -713 -155 -192 -42 -240 -56 -248
-71 -11 -21 110 -487 330 -1268 32 -112 63 -206 68 -207 10 -4 1440 364 1456
374 5 3 7 13 4 22 -44 152 -220 813 -236 891 -12 58 -27 119 -33 135 -6 17
-31 109 -57 205 -44 166 -47 175 -71 177 -14 1 -239 -45 -500 -103z m208 -327
c19 -23 165 -688 154 -699 -8 -8 -128 8 -403 51 -216 34 -396 64 -401 67 -5 3
-8 12 -6 20 4 17 619 573 634 574 6 0 16 -6 22 -13z"/>
</g>
</svg>
