# Blender 4.5.4 LTS
# www.blender.org
mtllib угу.mtl
o Икосфера
v 0.000000 -1.028649 0.000000
v 0.744338 -0.460032 0.540787
v -0.284306 -0.460032 0.875019
v -0.920050 -0.460028 0.000000
v -0.284306 -0.460032 -0.875019
v 0.744338 -0.460032 -0.540787
v 0.284306 0.460032 0.875019
v -0.744338 0.460032 0.540787
v -0.744338 0.460032 -0.540787
v 0.284306 0.460032 -0.875019
v 0.920050 0.460028 0.000000
v 0.000000 1.028649 0.000000
v -0.167110 -0.875024 0.514319
v 0.437508 -0.875024 0.317864
v 0.270400 -0.540799 0.832189
v 0.875018 -0.540798 0.000000
v 0.437508 -0.875024 -0.317864
v -0.540791 -0.875022 0.000000
v -0.707905 -0.540798 0.514321
v -0.167110 -0.875024 -0.514319
v -0.707905 -0.540798 -0.514321
v 0.270400 -0.540799 -0.832189
v 0.978304 0.000000 0.317865
v 0.978304 0.000000 -0.317865
v 0.000000 0.000000 1.028648
v 0.604625 0.000000 0.832194
v -0.978304 0.000000 0.317865
v -0.604625 0.000000 0.832194
v -0.604625 0.000000 -0.832194
v -0.978304 0.000000 -0.317865
v 0.604625 0.000000 -0.832194
v 0.000000 0.000000 -1.028648
v 0.707905 0.540798 0.514321
v -0.270400 0.540799 0.832189
v -0.875018 0.540798 0.000000
v -0.270400 0.540799 -0.832189
v 0.707905 0.540798 -0.514321
v 0.167110 0.875024 0.514319
v 0.540791 0.875022 0.000000
v -0.437508 0.875024 0.317864
v -0.437508 0.875024 -0.317864
v 0.167110 0.875024 -0.514319
v 0.496352 2.101385 -2.097426
v 0.069892 2.920193 -0.784897
v 0.069892 1.438939 -2.327870
v -0.335707 2.217690 -2.033180
v 0.320557 2.698974 -0.013418
v 0.881079 2.698970 -0.784897
v -0.586369 2.698974 -1.261693
v 0.320557 2.698974 -1.556376
v 0.713982 2.812347 -2.900485
v 0.074293 4.040559 -1.010443
v 0.074293 1.818678 -3.232324
v -0.534106 2.986804 -2.807971
v 0.450290 3.708731 0.100487
v 1.291073 3.708724 -1.010443
v -0.910099 3.708731 -1.697030
v 0.450290 3.708731 -2.121373
v 1.241758 2.590626 -4.121245
v -0.037619 5.047049 -0.341163
v -0.037619 0.603288 -4.784925
v -1.254418 2.939540 -3.936218
v 0.714374 4.383393 1.880697
v 2.395941 4.383380 -0.341163
v -2.006403 4.383393 -1.714336
v 0.714374 4.383393 -2.563023
v -1.127108 -1.856144 2.153231
v -2.080724 -1.856137 0.840702
v -0.951313 -2.478632 1.612181
v -0.044387 -2.478632 1.317498
v -0.295049 -1.977295 2.088985
v -1.511835 -2.478628 0.840702
v -1.762506 -1.977292 1.612184
v -2.168105 -1.166095 1.317500
v -1.452242 -2.406314 3.359301
v -3.359474 -2.406300 0.734244
v -1.100653 -3.651291 2.277202
v 0.713199 -3.651290 1.687836
v 0.211876 -2.648616 3.230810
v -2.221697 -3.651283 0.734244
v -2.723039 -2.648611 2.277208
v -3.534236 -1.026217 1.687840
v 1.527834 -1.019894 0.271181
v 1.527834 -1.019894 -0.810392
v 1.658514 -1.100660 -0.269605
v 1.221004 -1.434887 -0.587470
v 0.616387 -1.434887 -0.783925
v 1.053896 -1.100662 -1.101794
v 1.761801 -0.559863 0.048260
v 1.761801 -0.559863 -0.587471
v 1.982674 -1.238296 0.910541
v 1.982674 -1.238296 -1.252606
v 2.244034 -1.399827 -0.171032
v 1.369014 -2.068281 -0.806761
v 0.159779 -2.068281 -1.199671
v 1.034798 -1.399831 -1.835410
v 2.450608 -0.318232 0.464698
v 2.450608 -0.318232 -0.806763
v 0.596081 0.923445 1.885092
v 0.027469 0.003381 2.192350
v 1.236719 0.003381 1.799441
v -1.181781 0.003381 1.799441
v 1.443279 1.084977 1.163696
v -0.513330 1.084980 1.799431
vn 0.1024 -0.9435 0.3151
vn 0.7002 -0.6617 0.2680
vn -0.2680 -0.9435 0.1947
vn -0.2680 -0.9435 -0.1947
vn 0.1024 -0.9435 -0.3151
vn 0.4427 0.1985 0.8744
vn 0.0247 -0.3304 0.9435
vn -0.7676 0.2957 -0.5686
vn -0.5746 -0.3304 -0.7488
vn 0.5346 -0.3304 -0.7779
vn 0.8026 -0.1256 0.5831
vn -0.3066 -0.1256 0.9435
vn -0.9921 -0.1256 -0.0000
vn -0.3066 -0.1256 -0.9435
vn 0.8026 -0.1256 -0.5831
vn 0.4089 0.6617 0.6284
vn -0.4713 0.6617 0.5831
vn -0.7002 0.6617 -0.2680
vn -0.8726 -0.3050 -0.3816
vn 0.7240 0.6617 -0.1947
vn -0.6262 0.3179 0.7119
vn 0.4911 0.7947 -0.3568
vn 0.4089 0.6617 -0.6284
vn 0.7501 -0.3745 -0.5450
vn 0.9671 0.0596 0.2473
vn -0.4713 0.6617 -0.5831
vn -0.3313 0.9435 -0.0000
vn -0.6071 0.7947 -0.0000
vn -0.7002 0.6617 0.2680
vn -0.1024 0.9435 0.3151
vn -0.1876 0.7947 0.5773
vn 0.0385 0.6617 0.7488
vn -0.9191 0.1792 0.3509
vn 0.4911 0.7947 0.3568
vn 0.7240 0.6617 0.1947
vn 0.8897 0.3304 -0.3151
vn 0.7947 0.1876 -0.5773
vn 0.5746 0.3304 -0.7488
vn 0.8048 0.1015 0.5848
vn -0.3035 0.1876 -0.9342
vn -0.5346 0.3304 -0.7779
vn -0.9050 0.3304 -0.2680
vn -0.9822 0.1876 -0.0000
vn -0.9050 0.3304 0.2680
vn -0.5346 0.3304 0.7779
vn 0.1626 0.8768 -0.4525
vn -0.4019 0.8730 -0.2765
vn 0.0009 -1.0000 0.0029
vn 0.7947 0.1876 0.5773
vn 0.8897 0.3304 0.3151
vn 0.3066 0.1256 -0.9435
vn 0.3035 -0.1876 -0.9342
vn 0.0247 -0.3304 -0.9435
vn -0.8026 0.1256 -0.5831
vn -0.7947 -0.1876 -0.5773
vn -0.8897 -0.3304 -0.3151
vn -0.8026 0.1256 0.5831
vn -0.7947 -0.1876 0.5773
vn -0.5746 -0.3304 0.7488
vn -0.0010 -1.0000 0.0029
vn 0.3035 -0.1876 0.9342
vn 0.5346 -0.3304 0.7779
vn 0.9921 0.1256 -0.0000
vn -0.5860 -0.8101 -0.0206
vn 0.5814 0.8136 -0.0000
vn -0.2308 -0.6650 0.7103
vn 0.2801 0.7055 -0.6511
vn -0.0385 -0.6617 -0.7488
vn -0.4089 -0.6617 -0.6284
vn -0.4911 -0.7947 -0.3568
vn -0.7240 -0.6617 -0.1947
vn 0.2764 0.4472 0.8507
vn 0.9358 -0.0652 0.3464
vn -0.3126 -0.2857 -0.9059
vn -0.1390 -0.5808 0.8021
vn 0.6071 -0.7947 -0.0000
vn 0.3313 -0.9435 -0.0000
vn 0.1495 0.6171 0.7726
vn 0.6323 -0.6238 -0.4594
vn 0.4713 -0.6617 0.5831
vn -0.9390 0.0767 0.3351
vn -0.9359 -0.3392 -0.0948
vn -0.8983 -0.4041 -0.1727
vn 0.9585 0.0317 0.2832
vn -0.6053 0.1517 0.7814
vn 0.7320 -0.4089 -0.5449
vn -0.9633 -0.1805 -0.1985
vn 0.8328 -0.3943 -0.3886
vn -0.7012 -0.5360 0.4701
vn 0.9084 -0.0880 0.4087
vn -0.3478 -0.5457 0.7624
vn 0.6510 -0.5774 -0.4927
vn 0.6991 -0.5866 0.4088
vn 0.3707 -0.8854 0.2805
vn 0.7893 -0.1785 0.5875
vn 0.8534 -0.4825 -0.1972
vn 0.0370 0.6617 -0.7488
vn 0.2580 0.9462 -0.1953
vn -0.0983 0.9439 -0.3152
vn -0.1803 0.7958 -0.5781
vn 0.2580 0.9462 0.1953
vn -0.0238 0.3304 -0.9435
vn -0.4951 -0.7955 0.3494
vn -0.9351 -0.2623 0.2381
vn -0.2764 -0.4472 -0.8507
vn -0.1666 0.5462 -0.8209
vn 0.0596 0.0544 -0.9967
vn 0.7415 -0.3999 -0.5387
vn 0.8476 0.5265 -0.0667
vn -0.5209 0.7258 0.4493
vn -0.8897 -0.3304 0.3151
vn -0.7240 -0.6617 0.1947
vn -0.4911 -0.7947 0.3568
vn -0.4089 -0.6617 0.6284
vn -0.0385 -0.6617 0.7488
vn 0.1876 -0.7947 0.5773
vn 0.1626 0.8804 0.4454
vn -0.4084 0.8670 0.2854
vn -0.5616 0.5743 0.5957
vn -0.4232 0.5603 -0.7120
vn -0.4578 -0.8888 0.0221
vn -0.6972 0.6700 -0.2551
vn 0.0753 0.9226 -0.3782
vn -0.3310 0.9436 -0.0000
vn -0.4558 -0.2229 -0.8617
vn 0.0014 0.4355 -0.9002
vn 0.9050 -0.3304 0.2680
vn 0.9822 -0.1876 -0.0000
vn 0.9050 -0.3304 -0.2680
vn 0.4713 -0.6617 -0.5831
vn 0.1876 -0.7947 -0.5773
vn 0.7002 -0.6617 -0.2680
vn -0.3380 -0.3775 0.8621
vn -0.2868 -0.3726 0.8826
vn -0.3035 0.1876 0.9342
vn -0.0247 0.3304 0.9435
vn 0.5746 0.3304 0.7488
vn 0.3066 0.1256 0.9435
vn -0.7580 0.4684 -0.4539
vn 0.7551 -0.4334 -0.4919
vt 0.181819 0.000000
vt 0.227273 0.078731
vt 0.136365 0.078731
vt 0.272728 0.157461
vt 0.318182 0.078731
vt 0.363637 0.157461
vt 0.909091 0.000000
vt 0.954545 0.078731
vt 0.863636 0.078731
vt 0.727273 0.000000
vt 0.772727 0.078731
vt 0.681818 0.078731
vt 0.545455 0.000000
vt 0.590909 0.078731
vt 0.500000 0.078731
vt 0.318182 0.236191
vt 0.090910 0.157461
vt 0.181819 0.157461
vt 0.136365 0.236191
vt 0.863636 0.236191
vt 0.818182 0.157461
vt 0.636364 0.157461
vt 0.727273 0.157461
vt 0.681818 0.236191
vt 0.454546 0.157461
vt 0.545455 0.157461
vt 0.500000 0.236191
vt 0.227273 0.236191
vt 0.045455 0.236191
vt 0.772727 0.236191
vt 0.590909 0.236191
vt 0.409092 0.236191
vt 0.181819 0.314921
vt 0.272728 0.314921
vt 0.227273 0.393651
vt 0.000000 0.314921
vt 0.090910 0.314921
vt 0.045455 0.393651
vt 0.727273 0.314921
vt 0.818182 0.314921
vt 0.772727 0.393651
vt 0.636364 0.314921
vt 0.363637 0.314921
vt 0.454546 0.314921
vt 0.409092 0.393651
vt 0.818182 0.472382
vt 0.500000 0.393651
vt 0.545455 0.314921
vt 0.681818 0.393651
vt 0.863636 0.393651
vt 0.909091 0.314921
vt 0.136365 0.393651
vt 0.090910 0.472382
vt 0.318182 0.393651
vt 0.954545 0.236191
vt 0.909091 0.157461
vt 1.000000 0.157461
vt 0.409092 0.078731
vt 0.363637 0.000000
vt 0.590909 0.393651
vt 0.454546 0.472382
vt 0.636364 0.472382
vt 0.272728 0.472382
s 0
f 1/1/1 14/2/1 13/3/1
f 2/4/2 14/5/2 16/6/2
f 1/7/3 13/8/3 18/9/3
f 1/10/4 18/11/4 20/12/4
f 1/13/5 20/14/5 17/15/5
f 23/16/6 2/4/6 83/4/6 89/16/6
f 3/17/7 15/18/7 25/19/7
f 27/20/8 4/21/8 68/21/8 74/20/8
f 5/22/9 21/23/9 29/24/9
f 6/25/10 22/26/10 31/27/10
f 2/4/11 23/16/11 26/28/11
f 3/17/12 25/19/12 28/29/12
f 4/21/13 27/20/13 30/30/13
f 5/22/14 29/24/14 32/31/14
f 6/25/15 31/27/15 24/32/15
f 7/33/16 33/34/16 38/35/16
f 8/36/17 34/37/17 40/38/17
f 9/39/18 35/40/18 41/41/18
f 32/31/19 36/42/19 46/42/19 45/31/19
f 11/43/20 37/44/20 39/45/20
f 41/41/21 12/46/21 44/46/21 49/41/21
f 39/45/22 37/44/22 42/47/22
f 37/44/23 10/48/23 42/47/23
f 39/45/24 42/47/24 50/47/24 48/45/24
f 42/47/25 10/48/25 43/48/25 50/47/25
f 36/42/26 9/39/26 41/49/26
f 41/41/27 40/50/27 12/46/27
f 41/41/28 35/40/28 40/50/28
f 35/40/29 8/51/29 40/50/29
f 40/38/30 38/52/30 12/53/30
f 40/38/31 34/37/31 38/52/31
f 34/37/32 7/33/32 38/52/32
f 12/53/33 38/52/33 47/52/33 44/53/33
f 38/35/34 33/34/34 39/54/34
f 33/34/35 11/43/35 39/54/35
f 24/32/36 37/44/36 11/43/36
f 24/32/37 31/27/37 37/44/37
f 31/27/38 10/48/38 37/44/38
f 38/35/39 39/54/39 48/54/39 47/35/39
f 32/31/40 29/24/40 36/42/40
f 29/24/41 9/39/41 36/42/41
f 30/30/42 35/40/42 9/39/42
f 30/30/43 27/20/43 35/40/43
f 27/20/44 8/51/44 35/40/44
f 28/29/45 34/37/45 8/36/45
f 7/33/46 34/37/46 104/37/46 99/33/46
f 33/34/47 7/33/47 99/33/47 103/34/47
f 25/19/48 26/28/48 101/28/48 100/19/48
f 26/28/49 23/16/49 33/34/49
f 23/16/50 11/43/50 33/34/50
f 31/27/51 32/31/51 10/48/51
f 31/27/52 22/26/52 32/31/52
f 22/26/53 5/22/53 32/31/53
f 29/24/54 30/30/54 9/39/54
f 29/24/55 21/23/55 30/30/55
f 21/23/56 4/21/56 30/30/56
f 27/20/57 28/55/57 8/51/57
f 27/20/58 19/56/58 28/55/58
f 19/56/59 3/57/59 28/55/59
f 28/29/60 25/19/60 100/19/60 102/29/60
f 25/19/61 15/18/61 26/28/61
f 15/18/62 2/4/62 26/28/62
f 23/16/63 24/32/63 11/43/63
f 2/4/64 16/6/64 85/6/64 83/4/64
f 24/32/65 23/16/65 89/16/65 90/32/65
f 17/15/66 20/14/66 87/14/66 86/15/66
f 22/26/67 6/25/67 84/25/67 88/26/67
f 20/14/68 5/22/68 22/26/68
f 20/12/69 21/23/69 5/22/69
f 20/12/70 18/11/70 21/23/70
f 18/11/71 4/21/71 21/23/71
f 19/56/72 27/20/72 74/20/72 73/56/72
f 14/2/73 15/18/73 71/18/73 70/2/73
f 4/21/74 18/11/74 72/11/74 68/21/74
f 16/6/75 17/58/75 86/58/75 85/6/75
f 16/6/76 14/5/76 17/58/76
f 14/5/77 1/59/77 17/58/77
f 15/18/78 3/17/78 67/17/78 71/18/78
f 18/9/79 13/8/79 69/8/79 72/9/79
f 14/2/80 2/4/80 15/18/80
f 44/53/81 47/52/81 55/52/81 52/53/81
f 46/42/82 49/49/82 57/49/82 54/42/82
f 45/31/83 46/42/83 54/42/83 53/31/83
f 50/47/84 43/48/84 51/48/84 58/47/84
f 49/41/85 44/46/85 52/46/85 57/41/85
f 48/45/86 50/47/86 58/47/86 56/45/86
f 36/42/87 41/49/87 49/49/87 46/42/87
f 10/48/88 32/31/88 45/31/88 43/48/88
f 53/31/89 54/42/89 62/42/89 61/31/89
f 58/47/90 51/48/90 59/48/90 66/47/90
f 57/41/91 52/46/91 60/46/91 65/41/91
f 56/45/92 58/47/92 66/47/92 64/45/92
f 51/48/93 53/31/93 61/31/93 59/48/93
f 55/35/94 56/54/94 64/54/94 63/35/94
f 47/35/95 48/54/95 56/54/95 55/35/95
f 43/48/96 45/31/96 53/31/96 51/48/96
f 59/48/97 62/42/97 66/60/97
f 64/45/98 66/47/98 60/61/98
f 66/60/99 65/49/99 60/62/99
f 66/60/100 62/42/100 65/49/100
f 63/35/101 64/54/101 60/63/101
f 61/31/102 62/42/102 59/48/102
f 54/42/103 57/49/103 65/49/103 62/42/103
f 52/53/104 55/52/104 63/52/104 60/53/104
f 69/3/105 70/2/105 78/2/105 77/3/105
f 74/20/106 68/21/106 76/21/106 82/20/106
f 68/21/107 72/11/107 80/11/107 76/21/107
f 73/56/72 74/20/72 82/20/72 81/56/72
f 72/9/108 69/8/108 77/8/108 80/9/108
f 70/2/109 71/18/109 79/18/109 78/2/109
f 3/57/110 19/56/110 73/56/110 67/57/110
f 13/3/105 14/2/105 70/2/105 69/3/105
f 76/21/111 81/56/111 82/20/111
f 80/9/112 81/56/112 76/21/112
f 80/9/113 77/8/113 81/56/113
f 77/8/114 75/57/114 81/56/114
f 77/3/115 79/18/115 75/17/115
f 77/3/116 78/2/116 79/18/116
f 71/18/117 67/17/117 75/17/117 79/18/117
f 67/57/118 73/56/118 81/56/118 75/57/118
f 89/16/119 83/4/119 91/4/119 97/16/119
f 84/25/120 90/32/120 98/32/120 92/25/120
f 83/4/121 85/6/121 93/6/121 91/4/121
f 87/14/122 88/26/122 96/26/122 95/14/122
f 88/26/123 84/25/123 92/25/123 96/26/123
f 90/32/124 89/16/124 97/16/124 98/32/124
f 20/14/125 22/26/125 88/26/125 87/14/125
f 6/25/126 24/32/126 90/32/126 84/25/126
f 91/4/127 93/6/127 97/16/127
f 97/16/128 93/6/128 98/32/128
f 93/6/129 92/25/129 98/32/129
f 94/15/130 96/26/130 92/25/130
f 94/15/131 95/14/131 96/26/131
f 93/6/132 94/58/132 92/25/132
f 85/6/133 86/58/133 94/58/133 93/6/133
f 86/15/134 87/14/134 95/14/134 94/15/134
f 102/29/135 100/19/135 104/37/135
f 100/19/136 99/33/136 104/37/136
f 101/28/137 103/34/137 99/33/137
f 100/19/138 101/28/138 99/33/138
f 34/37/139 28/29/139 102/29/139 104/37/139
f 26/28/140 33/34/140 103/34/140 101/28/140
