# Blender 4.5.4 LTS
# www.blender.org
mtllib ыыыыыыыыыыы.mtl
o Икосфера.002
v 0.241609 -0.723043 -0.525315
v 0.241609 0.276172 -0.849986
v 0.241605 0.893728 -0.000000
v 0.241609 0.276172 0.849985
v 0.241609 -0.723043 0.525315
v 0.644729 0.162329 -0.499605
v 0.644728 -0.424991 -0.308771
v 0.320065 -0.262664 -0.808381
v 0.320064 -0.849984 -0.000000
v 0.644729 -0.424991 0.308770
v 0.644726 0.525320 -0.000000
v 0.320064 0.687652 -0.499607
v 0.644729 0.162329 0.499605
v 0.320064 0.687652 0.499607
v 0.320066 -0.262664 0.808380
v -0.000000 -0.950316 -0.308772
v 0.000000 -0.950316 0.308772
v -0.000000 0.000000 -0.999220
v -0.000000 -0.587327 -0.808385
v -0.000000 0.950316 -0.308772
v -0.000000 0.587327 -0.808385
v 0.000000 0.587327 0.808385
v 0.000000 0.950316 0.308772
v 0.000000 -0.587327 0.808385
v 0.000000 -0.000000 0.999220
v -1.446871 -0.276170 -0.849985
v -1.446871 0.723045 -0.525315
v -1.446870 0.723045 0.525316
v -1.446871 -0.276170 0.849986
v -1.446867 -0.893726 0.000000
v -2.511829 -0.689402 -0.899289
v -1.000000 -0.950314 -0.308771
v -1.000000 -0.950314 0.308772
v -1.000000 0.000002 -0.999219
v -1.000000 -0.587325 -0.808385
v -1.000000 0.950318 -0.308771
v -1.000000 0.587329 -0.808385
v -1.000000 0.587329 0.808386
v -1.000000 0.950318 0.308772
v -1.000000 -0.587325 0.808386
v -1.000000 0.000002 0.999220
v -1.525326 -0.687650 -0.499606
v -1.525328 0.262666 -0.808380
v -1.525326 0.849986 0.000001
v -1.525327 0.262666 0.808381
v -1.525326 -0.687650 0.499607
v -1.849991 -0.194793 -0.599526
v -1.849988 -0.630382 0.000001
v -1.849991 0.509991 -0.370524
v -1.849990 0.509991 0.370525
v -1.849990 -0.194793 0.599527
v 0.599999 -1.175113 1.617402
v -2.600001 -1.175110 1.617403
v 0.599998 -1.175113 -1.617403
v -2.600002 -1.175110 -1.617402
v 0.599998 -1.175113 -1.617403
v -2.600002 -1.175110 -1.617402
v 0.049998 -1.175113 -0.617402
v -1.050002 -1.175111 -0.617402
v 0.049999 -1.175113 0.617402
v -1.050001 -1.175111 0.617403
v 0.869393 -0.000000 -0.000000
v 0.750010 0.129863 -0.399684
v 0.750010 -0.339993 -0.247017
v 0.750010 -0.339993 0.247016
v 0.750008 0.420256 -0.000000
v 0.750010 0.129863 0.399684
v -0.315151 0.000003 0.000000
v -0.165922 -0.194792 -0.599526
v -0.165920 -0.630381 0.000000
v -0.165922 0.509992 -0.370524
v -0.165922 0.509992 0.370524
v -0.165922 -0.194792 0.599526
v -2.511826 -1.124991 0.000001
v -2.511828 -0.689402 0.899290
v 0.000000 0.999710 -0.308772
v -0.000000 0.636721 -0.808385
v 0.000000 0.636721 0.808385
v 0.000000 0.999710 0.308772
v -1.223157 1.234006 -0.308771
v -1.223157 0.871017 -0.808385
v -1.223157 0.871017 0.808386
v -1.223157 1.234006 0.308772
vn 0.6282 -0.2404 0.7400
vn 0.6617 -0.7002 -0.2680
vn 0.6282 0.6295 -0.4573
vn 0.6282 -0.7781 -0.0000
vn 0.6282 -0.2404 -0.7400
vn 0.5177 -0.8107 -0.2732
vn 0.5177 0.0093 -0.8555
vn 0.5177 0.8165 -0.2555
vn 0.5177 0.4953 0.6976
vn 0.5177 -0.5104 0.6866
vn 0.2280 -0.7877 -0.5723
vn 0.2280 0.3009 -0.9260
vn 0.2280 0.9737 -0.0000
vn 0.2280 0.3009 0.9260
vn 0.2280 -0.7877 0.5723
vn -0.0000 -0.3090 0.9511
vn 1.0000 -0.0000 -0.0000
vn -0.0000 -0.8090 0.5878
vn -0.0000 0.3090 0.9511
vn -0.7170 -0.5640 -0.4098
vn -0.0000 -0.3090 -0.9511
vn 0.2991 -0.2949 0.9075
vn 0.5177 0.0093 0.8555
vn -0.7860 -0.6183 -0.0000
vn 0.2991 0.7720 0.5609
vn 0.5177 0.8165 0.2555
vn -0.0000 0.3090 -0.9511
vn 0.2991 0.7720 -0.5609
vn 0.5177 0.4953 -0.6976
vn -0.0000 -1.0000 -0.0000
vn 0.2991 -0.2949 -0.9075
vn 0.5177 -0.5104 -0.6866
vn -0.0000 -0.8090 -0.5878
vn 0.2991 -0.9542 -0.0000
vn 0.5177 -0.8107 0.2732
vn 0.6617 -0.4713 0.5831
vn 0.7947 -0.1876 0.5773
vn 0.6617 0.0385 0.7488
vn 0.6617 0.4089 0.6284
vn 0.7947 0.4911 0.3568
vn 0.6617 0.7240 0.1947
vn 0.6617 0.7240 -0.1947
vn 0.7947 0.4911 -0.3568
vn 0.6617 0.4089 -0.6284
vn 0.6617 -0.7002 0.2680
vn 0.7947 -0.6071 -0.0000
vn 0.6282 0.6295 0.4573
vn 0.6617 0.0385 -0.7488
vn 0.7947 -0.1876 -0.5773
vn 0.6617 -0.4713 -0.5831
vn -0.5294 -0.4892 -0.6931
vn -0.5294 0.5080 -0.6795
vn -0.5294 0.8032 0.2732
vn -0.5294 -0.0116 0.8483
vn -0.5294 -0.8104 0.2511
vn -0.0000 0.8090 0.5878
vn -0.7232 -0.5587 0.4059
vn -0.5294 -0.4892 0.6931
vn -0.7232 0.2134 0.6568
vn -0.5294 0.5080 0.6795
vn -0.7232 0.6906 -0.0000
vn -0.5294 0.8032 -0.2732
vn -0.0000 0.8090 -0.5878
vn -0.7232 0.2134 -0.6568
vn -0.5294 -0.0116 -0.8483
vn -0.7232 -0.5587 -0.4059
vn -0.5294 -0.8104 -0.2511
vn -0.3304 -0.8897 0.3151
vn -0.1876 -0.7947 0.5773
vn -0.3304 -0.5746 0.7488
vn -0.3304 0.0247 0.9435
vn -0.1876 0.3035 0.9342
vn -0.3304 0.5346 0.7779
vn -0.3304 0.9050 0.2680
vn -0.1876 0.9822 -0.0000
vn -0.3304 0.9050 -0.2680
vn -0.3304 0.5346 -0.7779
vn -0.1876 0.3035 -0.9342
vn -0.3304 0.0247 -0.9435
vn -0.3304 -0.5746 -0.7488
vn -0.1876 -0.7947 -0.5773
vn -0.3304 -0.8897 -0.3151
vn -0.1256 -0.3066 0.9435
vn -0.1256 0.8026 0.5831
vn -0.1256 0.8026 -0.5831
vn -0.1256 -0.3066 -0.9435
vn -0.1256 -0.9921 -0.0000
vn -1.0000 -0.0000 -0.0000
vn -0.0000 1.0000 -0.0000
vn 0.9435 -0.1024 -0.3151
vn 0.9435 0.2680 -0.1947
vn 0.9435 0.2680 0.1947
vn 0.9435 -0.1024 0.3151
vn 0.9435 -0.3313 -0.0000
vn -0.9598 -0.2272 0.1651
vn -0.9598 0.0868 0.2671
vn -0.9598 0.2808 -0.0000
vn -0.9598 0.0868 -0.2671
vn -0.9598 -0.2272 -0.1651
vn -0.6050 0.6884 0.4001
vn -0.6050 0.6884 -0.4001
vn 0.1531 0.7995 0.5809
vn 0.1531 0.7995 -0.5809
vn 0.1881 0.9821 -0.0000
vn -0.0000 -0.0000 1.0000
vn -0.7170 -0.5640 0.4098
vn -0.0000 -0.0000 -1.0000
vt 0.590909 0.078731
vt 0.500000 0.078731
vt 0.272728 0.157461
vt 0.318182 0.078731
vt 0.363637 0.157461
vt 0.954545 0.078731
vt 0.863636 0.078731
vt 0.409092 0.078731
vt 0.227273 0.078731
vt 0.136365 0.078731
vt 0.318182 0.236191
vt 0.090910 0.157461
vt 0.181819 0.157461
vt 0.136365 0.236191
vt 0.818182 0.157461
vt 0.909091 0.157461
vt 0.863636 0.236191
vt 0.636364 0.157461
vt 0.727273 0.157461
vt 0.681818 0.236191
vt 0.454546 0.157461
vt 0.545455 0.157461
vt 0.500000 0.236191
vt 0.227273 0.236191
vt 0.045455 0.236191
vt 0.772727 0.236191
vt 0.590909 0.236191
vt 0.409092 0.236191
vt 0.954545 0.236191
vt 1.000000 0.157461
vt 0.681818 0.078731
vt 0.772727 0.078731
vt 0.181819 0.314921
vt 0.272728 0.314921
vt 0.227273 0.393651
vt 0.000000 0.314921
vt 0.090910 0.314921
vt 0.045455 0.393651
vt 0.727273 0.314921
vt 0.818182 0.314921
vt 0.772727 0.393651
vt 0.545455 0.314921
vt 0.636364 0.314921
vt 0.590909 0.393651
vt 0.363637 0.314921
vt 0.454546 0.314921
vt 0.409092 0.393651
vt 0.318182 0.393651
vt 0.500000 0.393651
vt 0.681818 0.393651
vt 0.136365 0.393651
vt 0.863636 0.393651
vt 0.909091 0.314921
vt 0.181819 0.000000
vt 0.909091 0.000000
vt 0.727273 0.000000
vt 0.545455 0.000000
vt 0.363637 0.000000
vt 0.454546 0.472382
vt 0.636364 0.472382
vt 0.818182 0.472382
vt 0.090910 0.472382
vt 0.272728 0.472382
s 0
f 13/1/1 10/2/1 65/2/1 67/1/1
f 1/3/2 7/4/2 9/5/2
f 6/6/3 11/7/3 66/7/3 63/6/3
f 10/8/4 7/4/4 64/4/4 65/8/4
f 7/9/5 6/10/5 63/10/5 64/9/5
f 1/3/6 9/5/6 16/11/6
f 2/12/7 8/13/7 18/14/7
f 3/15/8 12/16/8 20/17/8
f 4/18/9 14/19/9 22/20/9
f 5/21/10 15/22/10 24/23/10
f 1/3/11 16/11/11 19/24/11
f 2/12/12 18/14/12 21/25/12
f 3/15/13 20/17/13 23/26/13
f 4/18/14 22/20/14 25/27/14
f 5/21/15 24/23/15 17/28/15
f 24/23/16 25/27/16 41/27/16 40/23/16
f 23/26/17 20/17/17 76/17/17 79/26/17
f 17/28/18 24/23/18 40/23/18 33/28/18
f 25/27/19 22/20/19 38/20/19 41/27/19
f 39/26/20 38/20/20 82/20/20 83/26/20
f 18/14/21 19/24/21 35/24/21 34/14/21
f 24/23/22 15/22/22 25/27/22
f 15/22/23 4/18/23 25/27/23
f 36/17/24 39/26/24 83/26/24 80/17/24
f 22/20/25 14/19/25 23/26/25
f 14/19/26 3/15/26 23/26/26
f 21/25/27 18/14/27 34/14/27 37/25/27
f 20/17/28 12/16/28 21/29/28
f 12/16/29 2/30/29 21/29/29
f 16/11/30 17/28/30 33/28/30 32/11/30
f 18/14/31 8/13/31 19/24/31
f 8/13/32 1/3/32 19/24/32
f 19/24/33 16/11/33 32/11/33 35/24/33
f 16/11/34 9/5/34 17/28/34
f 9/5/35 5/21/35 17/28/35
f 10/2/36 15/22/36 5/21/36
f 10/2/37 13/1/37 15/22/37
f 13/1/38 4/18/38 15/22/38
f 13/31/39 14/19/39 4/18/39
f 13/31/40 11/32/40 14/19/40
f 11/32/41 3/15/41 14/19/41
f 11/7/42 12/16/42 3/15/42
f 11/7/43 6/6/43 12/16/43
f 6/6/44 2/30/44 12/16/44
f 9/5/45 10/8/45 5/21/45
f 9/5/46 7/4/46 10/8/46
f 11/32/47 13/31/47 67/31/47 66/32/47
f 6/10/48 8/13/48 2/12/48
f 6/10/49 7/9/49 8/13/49
f 7/9/50 1/3/50 8/13/50
f 26/33/51 42/34/51 47/35/51
f 27/36/52 43/37/52 49/38/52
f 28/39/53 44/40/53 50/41/53
f 29/42/54 45/43/54 51/44/54
f 30/45/55 46/46/55 48/47/55
f 47/35/56 48/48/56 70/48/56 69/35/56
f 48/47/57 46/46/57 51/49/57
f 46/46/58 29/42/58 51/49/58
f 51/44/21 50/50/21 72/50/21 73/44/21
f 51/44/59 45/43/59 50/50/59
f 45/43/60 28/39/60 50/50/60
f 49/38/16 47/51/16 69/51/16 71/38/16
f 50/41/61 44/40/61 49/52/61
f 44/40/62 27/53/62 49/52/62
f 48/47/63 51/49/63 73/49/63 70/47/63
f 49/38/64 43/37/64 47/51/64
f 43/37/65 26/33/65 47/51/65
f 50/41/30 49/52/30 71/52/30 72/41/30
f 47/35/66 42/34/66 48/48/66
f 42/34/67 30/45/67 48/48/67
f 33/28/68 46/46/68 30/45/68
f 33/28/69 40/23/69 46/46/69
f 40/23/70 29/42/70 46/46/70
f 41/27/71 45/43/71 29/42/71
f 41/27/72 38/20/72 45/43/72
f 38/20/73 28/39/73 45/43/73
f 39/26/74 44/40/74 28/39/74
f 39/26/75 36/17/75 44/40/75
f 36/17/76 27/53/76 44/40/76
f 37/25/77 43/37/77 27/36/77
f 37/25/78 34/14/78 43/37/78
f 34/14/79 26/33/79 43/37/79
f 35/24/80 42/34/80 26/33/80
f 35/24/81 32/11/81 42/34/81
f 32/11/82 30/45/82 42/34/82
f 40/23/83 41/27/83 29/42/83
f 38/20/84 39/26/84 28/39/84
f 36/17/85 37/29/85 27/53/85
f 34/14/86 35/24/86 26/33/86
f 32/11/87 33/28/87 30/45/87
f 40/23/33 24/23/33 52/23/33 53/23/33
f 19/24/18 35/24/18 55/24/18 54/24/18
f 54/24/88 55/24/88 57/24/88 56/24/88
f 56/24/89 57/24/89 59/24/89 58/24/89
f 53/23/89 52/23/89 60/23/89 61/23/89
f 62/54/90 64/9/90 63/10/90
f 62/55/91 63/6/91 66/7/91
f 62/56/92 66/32/92 67/31/92
f 62/57/93 67/1/93 65/2/93
f 64/4/94 62/58/94 65/8/94
f 70/47/95 73/49/95 68/59/95
f 73/44/96 72/50/96 68/60/96
f 72/41/97 71/52/97 68/61/97
f 71/38/98 69/51/98 68/62/98
f 69/35/99 70/48/99 68/63/99
f 48/48/100 47/35/100 31/35/100 74/48/100
f 51/49/101 48/47/101 74/47/101 75/49/101
f 78/20/102 79/26/102 83/26/102 82/20/102
f 76/17/103 77/29/103 81/29/103 80/17/103
f 79/26/104 76/17/104 80/17/104 83/26/104
f 22/20/17 23/26/17 79/26/17 78/20/17
f 38/20/105 22/20/105 78/20/105 82/20/105
f 20/17/17 21/29/17 77/29/17 76/17/17
f 37/29/106 36/17/106 80/17/106 81/29/106
f 21/25/107 37/25/107 81/25/107 77/25/107
