# Blender 4.5.4 LTS
# www.blender.org
mtllib планета.mtl
o Икосфера
v 0.739360 -0.456955 0.537170
v -0.282405 -0.456956 0.869167
v -0.913897 -0.456951 0.000000
v -0.282405 -0.456956 -0.869167
v 0.739360 -0.456955 -0.537170
v 0.282405 0.456956 0.869167
v -0.739360 0.456955 0.537170
v -0.739360 0.456955 -0.537170
v 0.282405 0.456956 -0.869167
v 0.913897 0.456951 0.000000
v -0.165992 -0.869173 0.510880
v 0.434582 -0.869173 0.315738
v 0.268591 -0.537183 0.826623
v 0.869166 -0.537181 0.000000
v 0.434582 -0.869173 -0.315738
v -0.537175 -0.869170 0.000000
v -0.703171 -0.537181 0.510882
v -0.165992 -0.869173 -0.510880
v -0.703171 -0.537181 -0.510882
v 0.268591 -0.537183 -0.826623
v 0.971762 0.000000 0.315740
v 0.971762 0.000000 -0.315740
v 0.000000 0.000000 1.021769
v 0.600581 0.000000 0.826629
v -0.971762 0.000000 0.315740
v -0.600581 0.000000 0.826629
v -0.600581 0.000000 -0.826629
v -0.971762 0.000000 -0.315740
v 0.600581 0.000000 -0.826629
v 0.000000 0.000000 -1.021769
v 0.703171 0.537181 0.510882
v -0.268591 0.537183 0.826623
v -0.869166 0.537181 0.000000
v -0.268591 0.537183 -0.826623
v 0.703171 0.537181 -0.510882
v 0.165992 0.869173 0.510880
v 0.537175 0.869170 0.000000
v -0.434582 0.869173 0.315738
v -0.434582 0.869173 -0.315738
v 0.165992 0.869173 -0.510880
v 0.000000 0.671206 -0.000000
v 0.075430 1.386422 0.248732
v 0.244100 1.386422 -0.000000
v -0.197480 1.386414 0.153722
v -0.197480 1.386414 -0.153722
v 0.075430 1.386422 -0.248732
v 0.429740 1.432240 -0.000000
v 0.132794 1.432243 -0.408704
v -0.347665 1.432243 -0.252591
v -0.347665 1.432243 0.252591
v 0.132794 1.432243 0.408704
v -0.000000 -0.716331 0.000000
v -0.078557 -1.385591 0.241773
v 0.205666 -1.385599 0.149422
v 0.205666 -1.385599 -0.149422
v -0.254219 -1.385593 -0.000000
v -0.078557 -1.385591 -0.241773
v 0.347665 -1.422226 -0.252591
v -0.132794 -1.422226 -0.408704
v -0.429740 -1.422223 0.000000
v -0.132794 -1.422226 0.408704
v 0.347665 -1.422226 0.252591
v 0.767941 -0.488877 0.213686
v 0.310986 0.425034 0.545684
v -0.710778 0.425034 0.213686
v 0.297173 -0.569104 0.503139
v 0.028581 -0.031921 0.698285
v 0.629163 -0.031921 0.503145
v -0.943180 -0.031921 -0.007744
v -0.572000 -0.031921 0.503145
v -0.240010 0.505261 0.503139
v -0.231559 -0.467520 -0.614985
v 0.333251 0.446391 -0.614985
v -0.652325 -0.547746 -0.256699
v -0.549735 -0.010565 -0.572446
v 0.651428 -0.010565 -0.572446
v 0.050846 -0.010565 -0.767587
v -0.217745 0.526618 -0.572441
v 0.595722 0.406195 0.000000
v 0.550990 -0.587937 0.000000
v 0.653586 -0.050756 0.315740
v 0.653586 -0.050756 -0.315740
v 0.384995 0.486425 0.510882
v 0.384995 0.486425 -0.510882
vn 0.3053 -0.1553 -0.9395
vn 0.7002 -0.6617 0.2680
vn -0.7992 -0.1553 0.5807
vn 0.9879 -0.1553 -0.0000
vn 0.3053 -0.1553 0.9395
vn 0.9050 -0.3304 0.2680
vn 0.0247 -0.3304 0.9435
vn -0.8897 -0.3304 0.3151
vn -0.8186 -0.5569 0.1406
vn 0.5346 -0.3304 -0.7779
vn 0.8026 -0.1256 0.5831
vn -0.3066 -0.1256 0.9435
vn -0.9921 -0.1256 -0.0000
vn 0.9343 -0.2955 -0.1992
vn 0.8026 -0.1256 -0.5831
vn 0.4089 0.6617 0.6284
vn -0.4713 0.6617 0.5831
vn -0.7002 0.6617 -0.2680
vn 0.0385 0.6617 -0.7488
vn 0.7240 0.6617 -0.1947
vn -0.3054 0.1526 0.9399
vn 0.4911 0.7947 -0.3568
vn 0.4089 0.6617 -0.6284
vn 0.7995 0.1526 -0.5809
vn -0.1876 0.7947 -0.5773
vn -0.4713 0.6617 -0.5831
vn -0.9883 0.1526 -0.0000
vn -0.6071 0.7947 -0.0000
vn -0.7002 0.6617 0.2680
vn 0.7995 0.1526 0.5809
vn -0.1876 0.7947 0.5773
vn 0.0385 0.6617 0.7488
vn -0.3054 0.1526 -0.9399
vn 0.4911 0.7947 0.3568
vn 0.7240 0.6617 0.1947
vn 0.1538 -0.9644 -0.2149
vn 0.7947 0.1876 -0.5773
vn 0.5746 0.3304 -0.7488
vn -0.1312 0.9891 0.0674
vn -0.1450 -0.9894 -0.0121
vn -0.5346 0.3304 -0.7779
vn -0.9050 0.3304 -0.2680
vn -0.9822 0.1876 -0.0000
vn -0.9050 0.3304 0.2680
vn 0.0310 0.9950 -0.0954
vn -0.1499 -0.9851 0.0840
vn 0.8586 -0.4972 0.1249
vn 0.5746 0.3304 0.7488
vn 0.7947 0.1876 0.5773
vn -0.0824 0.5167 -0.8522
vn 0.8354 -0.5163 -0.1886
vn 0.3035 -0.1876 -0.9342
vn 0.0247 -0.3304 -0.9435
vn -0.8026 0.1256 -0.5831
vn -0.7947 -0.1876 -0.5773
vn -0.8897 -0.3304 -0.3151
vn -0.8213 -0.5703 -0.0163
vn -0.7947 -0.1876 0.5773
vn -0.5746 -0.3304 0.7488
vn -0.9651 -0.2550 -0.0601
vn 0.8991 0.4363 0.0364
vn -0.2358 0.9649 -0.1160
vn 0.1538 -0.9644 0.2149
vn -0.0508 0.3185 -0.9466
vn 0.9050 -0.3304 -0.2680
vn 0.4713 -0.6617 -0.5831
vn 0.1876 -0.7947 -0.5773
vn -0.0385 -0.6617 -0.7488
vn -0.4089 -0.6617 -0.6284
vn -0.4911 -0.7947 -0.3568
vn -0.7240 -0.6617 -0.1947
vn -0.7240 -0.6617 0.1947
vn -0.4911 -0.7947 0.3568
vn -0.4089 -0.6617 0.6284
vn 0.7002 -0.6617 -0.2680
vn 0.6071 -0.7947 -0.0000
vn -0.7992 -0.1553 -0.5807
vn -0.0385 -0.6617 0.7488
vn 0.1876 -0.7947 0.5773
vn 0.4713 -0.6617 0.5831
vn -0.7965 0.2718 0.5401
vn 0.3154 0.2819 0.9061
vn 0.9639 0.2662 -0.0000
vn 0.3154 0.2819 -0.9061
vn -0.7965 0.2718 -0.5401
vn -0.2453 0.9538 0.1737
vn 0.1000 0.9487 0.3000
vn 0.2919 0.9565 -0.0000
vn 0.1000 0.9487 -0.3000
vn -0.2453 0.9538 -0.1737
vn -0.2954 -0.2937 -0.9091
vn 0.7733 -0.2937 -0.5619
vn 0.7733 -0.2937 0.5619
vn -0.2954 -0.2937 0.9091
vn -0.9559 -0.2937 -0.0000
vn -0.0772 -0.9683 0.2376
vn 0.2021 -0.9683 0.1468
vn 0.2021 -0.9683 -0.1468
vn -0.2498 -0.9683 -0.0000
vn -0.0772 -0.9683 -0.2376
vn -0.5346 0.3304 0.7779
vn -0.3035 0.1876 0.9342
vn -0.0247 0.3304 0.9435
vn -0.8026 0.1256 0.5831
vn 0.3066 0.1256 0.9435
vn 0.3035 -0.1876 0.9342
vn 0.5346 -0.3304 0.7779
vn 0.1029 -0.9889 0.1067
vn 0.1198 0.9890 -0.0870
vn -0.5746 -0.3304 -0.7488
vn -0.3066 -0.1256 -0.9435
vn -0.0247 0.3304 -0.9435
vn -0.3035 0.1876 -0.9342
vn 0.3066 0.1256 -0.9435
vn -0.0144 0.9989 0.0444
vn -0.8072 0.5606 0.1848
vn 0.8897 0.3304 -0.3151
vn 0.8897 0.3304 0.3151
vn 0.9921 0.1256 -0.0000
vn 0.9822 -0.1876 -0.0000
vn -0.0508 0.3185 0.9466
vn -0.0824 0.5167 0.8522
vt 0.590909 0.078731
vt 0.500000 0.078731
vt 0.272728 0.157461
vt 0.318182 0.078731
vt 0.363637 0.157461
vt 0.954545 0.078731
vt 0.863636 0.078731
vt 0.409092 0.078731
vt 0.227273 0.078731
vt 0.136365 0.078731
vt 0.318182 0.236191
vt 0.090910 0.157461
vt 0.181819 0.157461
vt 0.136365 0.236191
vt 0.818182 0.157461
vt 0.909091 0.157461
vt 0.863636 0.236191
vt 0.545455 0.314921
vt 0.500000 0.236191
vt 0.454546 0.157461
vt 0.545455 0.157461
vt 0.227273 0.236191
vt 0.045455 0.236191
vt 0.772727 0.236191
vt 0.727273 0.157461
vt 0.681818 0.236191
vt 0.409092 0.236191
vt 0.181819 0.314921
vt 0.272728 0.314921
vt 0.227273 0.393651
vt 0.000000 0.314921
vt 0.090910 0.314921
vt 0.045455 0.393651
vt 0.727273 0.314921
vt 0.818182 0.314921
vt 0.772727 0.393651
vt 0.636364 0.314921
vt 0.590909 0.393651
vt 0.363637 0.314921
vt 0.454546 0.314921
vt 0.409092 0.393651
vt 0.136365 0.393651
vt 0.500000 0.393651
vt 0.681818 0.393651
vt 0.863636 0.393651
vt 0.909091 0.314921
vt 0.318182 0.393651
vt 0.636364 0.157461
vt 0.590909 0.236191
vt 0.954545 0.236191
vt 1.000000 0.157461
vt 0.681818 0.078731
vt 0.772727 0.078731
vt 0.439792 0.449909
vt 0.469299 0.449909
vt 0.454546 0.472382
vt 0.621610 0.449909
vt 0.651118 0.449909
vt 0.636364 0.472382
vt 0.803428 0.449909
vt 0.832935 0.449909
vt 0.818182 0.472382
vt 0.076156 0.449909
vt 0.105664 0.449909
vt 0.090910 0.472382
vt 0.257974 0.449909
vt 0.287482 0.449909
vt 0.272728 0.472382
vt 0.181819 0.000000
vt 0.198625 0.024878
vt 0.165013 0.024878
vt 0.909091 0.000000
vt 0.925897 0.024878
vt 0.892285 0.024878
vt 0.727273 0.000000
vt 0.744079 0.024878
vt 0.710467 0.024878
vt 0.545455 0.000000
vt 0.562261 0.024877
vt 0.528649 0.024877
vt 0.346831 0.024878
vt 0.363637 0.000000
vt 0.380443 0.024878
s 0
f 18/1/1 15/2/1 58/2/1 59/1/1
f 1/3/2 12/4/2 14/5/2
f 11/6/3 16/7/3 60/7/3 61/6/3
f 15/8/4 12/4/4 62/4/4 58/8/4
f 12/9/5 11/10/5 61/10/5 62/9/5
f 1/3/6 14/5/6 21/11/6
f 2/12/7 13/13/7 23/14/7
f 3/15/8 17/16/8 25/17/8
f 9/18/9 29/19/9 76/19/9 73/18/9
f 5/20/10 20/21/10 29/19/10
f 1/3/11 21/11/11 24/22/11
f 2/12/12 23/14/12 26/23/12
f 3/15/13 25/17/13 28/24/13
f 19/25/14 27/26/14 75/26/14 74/25/14
f 5/20/15 29/19/15 22/27/15
f 6/28/16 31/29/16 36/30/16
f 7/31/17 32/32/17 38/33/17
f 8/34/18 33/35/18 39/36/18
f 9/18/19 34/37/19 40/38/19
f 10/39/20 35/40/20 37/41/20
f 38/33/21 36/42/21 51/42/21 50/33/21
f 37/41/22 35/40/22 40/43/22
f 35/40/23 9/18/23 40/43/23
f 37/41/24 40/43/24 48/43/24 47/41/24
f 40/38/25 34/37/25 39/44/25
f 34/37/26 8/34/26 39/44/26
f 39/36/27 38/45/27 50/45/27 49/36/27
f 39/36/28 33/35/28 38/45/28
f 33/35/29 7/46/29 38/45/29
f 36/30/30 37/47/30 47/47/30 51/30/30
f 38/33/31 32/32/31 36/42/31
f 32/32/32 6/28/32 36/42/32
f 40/38/33 39/44/33 49/44/33 48/38/33
f 36/30/34 31/29/34 37/47/34
f 31/29/35 10/39/35 37/47/35
f 35/40/36 10/39/36 79/39/36 84/40/36
f 22/27/37 29/19/37 35/40/37
f 29/19/38 9/18/38 35/40/38
f 4/48/39 19/25/39 74/25/39 72/48/39
f 34/37/40 9/18/40 73/18/40 78/37/40
f 27/26/41 8/34/41 34/37/41
f 28/24/42 33/35/42 8/34/42
f 28/24/43 25/17/43 33/35/43
f 25/17/44 7/46/44 33/35/44
f 26/23/45 23/14/45 67/14/45 70/23/45
f 6/28/46 32/32/46 71/32/46 64/28/46
f 7/46/47 25/17/47 69/17/47 65/46/47
f 24/22/48 31/29/48 6/28/48
f 24/22/49 21/11/49 31/29/49
f 21/11/50 14/5/50 80/5/50 81/11/50
f 27/26/51 34/37/51 78/37/51 75/26/51
f 29/19/52 20/21/52 30/49/52
f 20/21/53 4/48/53 30/49/53
f 27/26/54 28/24/54 8/34/54
f 27/26/55 19/25/55 28/24/55
f 19/25/56 3/15/56 28/24/56
f 24/22/57 6/28/57 64/28/57 68/22/57
f 25/17/58 17/16/58 26/50/58
f 17/16/59 2/51/59 26/50/59
f 1/3/60 24/22/60 68/22/60 63/3/60
f 23/14/61 13/13/61 66/13/61 67/14/61
f 13/13/62 1/3/62 63/3/62 66/13/62
f 10/39/63 31/29/63 83/29/63 79/39/63
f 31/29/64 21/11/64 81/11/64 83/29/64
f 14/5/65 5/20/65 22/27/65
f 15/2/66 20/21/66 5/20/66
f 15/2/67 18/1/67 20/21/67
f 18/1/68 4/48/68 20/21/68
f 18/52/69 19/25/69 4/48/69
f 18/52/70 16/53/70 19/25/70
f 16/53/71 3/15/71 19/25/71
f 16/7/72 17/16/72 3/15/72
f 16/7/73 11/6/73 17/16/73
f 11/6/74 2/51/74 17/16/74
f 14/5/75 15/8/75 5/20/75
f 14/5/76 12/4/76 15/8/76
f 16/53/77 18/52/77 59/52/77 60/53/77
f 11/10/78 13/13/78 2/12/78
f 11/10/79 12/9/79 13/13/79
f 12/9/80 1/3/80 13/13/80
f 43/54/81 46/55/81 41/56/81
f 46/57/82 45/58/82 41/59/82
f 45/60/83 44/61/83 41/62/83
f 44/63/84 42/64/84 41/65/84
f 42/66/85 43/67/85 41/68/85
f 46/55/86 43/54/86 47/41/86 48/43/86
f 45/58/87 46/57/87 48/38/87 49/44/87
f 44/61/88 45/60/88 49/36/88 50/45/88
f 42/64/89 44/63/89 50/33/89 51/42/89
f 43/67/90 42/66/90 51/30/90 47/47/90
f 52/69/91 54/70/91 53/71/91
f 52/72/92 53/73/92 56/74/92
f 52/75/93 56/76/93 57/77/93
f 52/78/94 57/79/94 55/80/94
f 54/81/95 52/82/95 55/83/95
f 55/80/96 57/79/96 59/1/96 58/2/96
f 57/77/97 56/76/97 60/53/97 59/52/97
f 56/74/98 53/73/98 61/6/98 60/7/98
f 54/81/99 55/83/99 58/8/99 62/4/99
f 53/71/100 54/70/100 62/9/100 61/10/100
f 70/23/101 71/32/101 65/31/101
f 70/23/102 67/14/102 71/32/102
f 67/14/103 64/28/103 71/32/103
f 69/17/104 70/50/104 65/46/104
f 67/14/105 68/22/105 64/28/105
f 67/14/106 66/13/106 68/22/106
f 66/13/107 63/3/107 68/22/107
f 32/32/108 7/31/108 65/31/108 71/32/108
f 25/17/109 26/50/109 70/50/109 69/17/109
f 72/48/110 74/25/110 75/26/110
f 72/48/111 75/26/111 77/49/111
f 77/49/112 78/37/112 73/18/112
f 77/49/113 75/26/113 78/37/113
f 76/19/114 77/49/114 73/18/114
f 29/19/115 30/49/115 77/49/115 76/19/115
f 30/49/116 4/48/116 72/48/116 77/49/116
f 82/27/117 84/40/117 79/39/117
f 81/11/118 79/39/118 83/29/118
f 81/11/119 82/27/119 79/39/119
f 81/11/120 80/5/120 82/27/120
f 22/27/121 35/40/121 84/40/121 82/27/121
f 14/5/122 22/27/122 82/27/122 80/5/122
