# Blender 4.5.4 LTS
# www.blender.org
mtllib спутник.mtl
o Икосфера
v 0.804204 -0.133725 0.584281
v -0.307172 -0.176610 0.945396
v -0.994049 -0.163303 0.000000
v -0.307172 -0.191861 -0.945396
v 0.804204 -0.159113 -0.584281
v 0.307172 0.687356 0.945396
v -0.804204 0.687355 0.584281
v -0.804204 0.687355 -0.584281
v 0.307172 0.687356 -0.945396
v 0.994049 0.687355 0.000000
v 0.000000 0.733503 0.000000
v -0.180550 -0.945401 0.555685
v 0.472696 -0.945401 0.343429
v 0.292147 -0.584295 0.899120
v 0.945394 -0.584293 0.000000
v 0.472696 -0.945401 -0.343429
v -0.584286 -0.945398 0.000000
v -0.764841 -0.584293 0.555687
v -0.180550 -0.945401 -0.555685
v -0.764841 -0.584293 -0.555687
v 0.292147 -0.584295 -0.899120
v 1.056988 0.000000 0.343431
v 1.056988 0.000000 -0.343431
v 0.000000 0.000000 1.111381
v 0.653254 0.000000 0.899126
v -1.056988 0.000000 0.343431
v -0.653254 0.000000 0.899126
v -0.653254 0.000000 -0.899126
v -1.056988 0.000000 -0.343431
v 0.653254 0.000000 -0.899126
v 0.000000 0.000000 -1.111381
v 0.764841 0.693910 0.555687
v -0.292147 0.693910 0.899120
v -0.945394 0.693910 0.000000
v -0.292147 0.693910 -0.899120
v 0.764841 0.693910 -0.555687
v 0.180550 0.721035 0.555685
v 0.584286 0.721035 0.000000
v -0.472696 0.721035 0.343429
v -0.472696 0.721035 -0.343429
v 0.180550 0.721035 -0.555685
v 1.401398 -1.171645 1.018165
v 1.069890 -1.620015 0.777313
v 0.889342 -1.258909 1.333004
v 1.542589 -1.258907 0.433883
v -1.732223 -1.171637 0.000000
v -1.322460 -1.620009 0.000000
v -1.503015 -1.258904 0.555687
v -1.503015 -1.258904 -0.555687
v -0.535278 -1.171646 -1.647438
v -0.408655 -1.620016 -1.257728
v -0.992946 -1.258907 -1.257730
v 0.064042 -1.258909 -1.601163
v -0.535278 -1.171646 1.647438
v -0.408655 -1.620016 1.257728
v 0.064042 -1.258909 1.601163
v -0.992946 -1.258907 1.257730
v 1.401398 -1.171645 -1.018165
v 1.542589 -1.258907 -0.433883
v 1.069890 -1.620015 -0.777313
v 0.889342 -1.258909 -1.333004
v -0.000001 -4.111382 -0.000000
v -0.288881 -1.507041 0.889097
v 0.756312 -1.507041 0.549487
v 0.756312 -1.507041 -0.549487
v -0.934859 -1.507038 -0.000000
v -0.288881 -1.507041 -0.889097
v -0.921648 -0.021765 0.343431
v -0.921648 -0.021765 -0.343431
v -0.810054 0.672145 0.000000
v 0.038742 -0.020162 0.992145
v -0.614512 -0.020162 0.779889
v -0.253405 0.673748 0.779884
v 0.965025 -0.018280 0.276617
v 0.561291 -0.018280 0.832312
v 0.672878 0.675630 0.488873
v 0.971737 -0.016946 -0.281493
v 0.568003 -0.016946 -0.837188
v 0.679590 0.676964 -0.493749
v -0.616781 -0.018981 -0.786874
v 0.036473 -0.018981 -0.999129
v -0.255675 0.674929 -0.786869
vn 0.2758 0.4508 -0.8490
vn -0.7841 -0.6050 0.1384
vn -0.7222 0.4508 0.5247
vn 0.8926 0.4508 -0.0000
vn 0.2758 0.4508 0.8490
vn 0.7299 -0.4446 0.5192
vn -0.2251 -0.4301 0.8742
vn -0.8996 -0.4346 0.0418
vn -0.3474 -0.4250 -0.8359
vn 0.7055 -0.4360 -0.5586
vn 0.7320 -0.4259 0.5318
vn -0.2911 -0.3357 0.8959
vn -0.9331 -0.3596 -0.0000
vn -0.2936 -0.3117 -0.9037
vn 0.7523 -0.3678 -0.5466
vn 0.0463 0.9964 0.0711
vn -0.0533 0.9964 0.0660
vn -0.0792 0.9964 -0.0303
vn 0.0044 0.9964 -0.0847
vn 0.0819 0.9964 -0.0220
vn 0.0213 0.9997 -0.0155
vn 0.0463 0.9984 -0.0337
vn 0.0463 0.9964 -0.0711
vn -0.0081 0.9997 -0.0251
vn -0.0177 0.9984 -0.0545
vn -0.0533 0.9964 -0.0660
vn -0.0264 0.9997 -0.0000
vn -0.0573 0.9984 -0.0000
vn -0.0792 0.9964 0.0303
vn -0.0081 0.9997 0.0251
vn -0.0177 0.9984 0.0545
vn 0.0044 0.9964 0.0847
vn 0.0213 0.9997 0.0155
vn 0.0463 0.9984 0.0337
vn 0.0819 0.9964 0.0220
vn 0.8927 0.2642 -0.3651
vn 0.5845 -0.4335 0.6859
vn 0.6231 0.2642 -0.7362
vn -0.0714 0.2642 -0.9618
vn 0.8330 -0.4335 -0.3439
vn -0.5076 0.2642 -0.8201
vn -0.9368 0.2642 -0.2293
vn -0.0697 -0.4335 -0.8985
vn -0.9368 0.2642 0.2293
vn -0.5076 0.2642 0.8201
vn -0.8760 -0.4335 -0.2113
vn -0.0714 0.2642 0.9618
vn 0.6231 0.2642 0.7362
vn -0.4717 -0.4335 0.7679
vn 0.8927 0.2642 0.3651
vn 0.3077 0.0912 -0.9471
vn 0.3035 -0.1876 -0.9342
vn -0.2103 -0.4250 -0.8804
vn -0.8056 0.0912 -0.5853
vn -0.7947 -0.1876 -0.5773
vn -0.8996 -0.4346 -0.0418
vn -0.8056 0.0912 0.5853
vn -0.7947 -0.1876 0.5773
vn -0.3318 -0.4301 0.8396
vn 0.3077 0.0912 0.9471
vn 0.3035 -0.1876 0.9342
vn 0.7194 -0.4446 0.5337
vn 0.9958 0.0912 -0.0000
vn 0.9822 -0.1876 -0.0000
vn 0.7493 -0.4360 -0.4984
vn -0.1106 -0.6050 0.7885
vn 0.1876 -0.7947 -0.5773
vn 0.7157 -0.6050 0.3489
vn -0.6845 0.5722 -0.4517
vn -0.4911 -0.7947 -0.3568
vn 0.5530 -0.6051 -0.5728
vn -0.6413 0.5626 0.5218
vn -0.4911 -0.7947 0.3568
vn 0.7157 -0.6050 -0.3489
vn -0.7841 -0.6050 -0.1384
vn 0.6071 -0.7947 -0.0000
vn -0.7222 0.4508 -0.5247
vn 0.2936 0.5670 0.7696
vn 0.1876 -0.7947 0.5773
vn 0.2061 0.5529 0.8074
vn 0.7002 -0.6617 0.2680
vn 0.4713 -0.6617 0.5831
vn -0.1106 -0.6050 -0.7885
vn 0.8316 0.5529 -0.0535
vn -0.7240 -0.6617 -0.1947
vn -0.7240 -0.6617 0.1947
vn -0.6413 0.5626 -0.5218
vn 0.5530 -0.6051 0.5728
vn -0.0385 -0.6617 -0.7488
vn -0.4089 -0.6617 -0.6284
vn 0.2883 0.5722 -0.7678
vn -0.3739 -0.6051 0.7029
vn -0.4089 -0.6617 0.6284
vn -0.0385 -0.6617 0.7488
vn -0.6899 0.5670 0.4501
vn -0.3739 -0.6051 -0.7029
vn 0.4713 -0.6617 -0.5831
vn 0.7002 -0.6617 -0.2680
vn 0.8264 0.5612 0.0464
vn 0.2113 0.5612 -0.8003
vn 0.2968 -0.2789 0.9133
vn -0.7769 -0.2789 0.5645
vn -0.7769 -0.2789 -0.5645
vn 0.2968 -0.2789 -0.9133
vn 0.9603 -0.2789 -0.0000
vn -0.9873 0.1588 -0.0000
vn 0.1588 0.9873 -0.0000
vn -0.0697 -0.4335 0.8985
vn -0.3051 0.1588 0.9390
vn 0.0491 0.9873 -0.1510
vn 0.8330 -0.4335 0.3439
vn 0.7988 0.1588 0.5803
vn -0.1285 0.9873 -0.0933
vn 0.5845 -0.4335 -0.6859
vn 0.7988 0.1588 -0.5803
vn -0.1285 0.9873 0.0933
vn -0.4717 -0.4335 -0.7679
vn -0.3051 0.1588 -0.9390
vn 0.0491 0.9873 0.1510
vn -0.8760 -0.4335 0.2113
vt 0.590909 0.078731
vt 0.500000 0.078731
vt 0.181819 0.157461
vt 0.227273 0.078731
vt 0.954545 0.078731
vt 0.863636 0.078731
vt 0.409092 0.078731
vt 0.318182 0.078731
vt 0.136365 0.078731
vt 0.272728 0.157461
vt 0.363637 0.157461
vt 0.318182 0.236191
vt 0.090910 0.157461
vt 0.136365 0.236191
vt 0.818182 0.157461
vt 0.909091 0.157461
vt 0.863636 0.236191
vt 0.636364 0.157461
vt 0.727273 0.157461
vt 0.681818 0.236191
vt 0.454546 0.157461
vt 0.545455 0.157461
vt 0.500000 0.236191
vt 0.227273 0.236191
vt 0.045455 0.236191
vt 0.772727 0.236191
vt 0.590909 0.236191
vt 0.409092 0.236191
vt 0.181819 0.314921
vt 0.272728 0.314921
vt 0.227273 0.393651
vt 0.000000 0.314921
vt 0.090910 0.314921
vt 0.045455 0.393651
vt 0.727273 0.314921
vt 0.818182 0.314921
vt 0.772727 0.393651
vt 0.545455 0.314921
vt 0.636364 0.314921
vt 0.590909 0.393651
vt 0.363637 0.314921
vt 0.454546 0.314921
vt 0.409092 0.393651
vt 0.500000 0.393651
vt 0.454546 0.472382
vt 0.681818 0.393651
vt 0.636364 0.472382
vt 0.863636 0.393651
vt 0.818182 0.472382
vt 0.909091 0.314921
vt 0.136365 0.393651
vt 0.090910 0.472382
vt 0.318182 0.393651
vt 0.272728 0.472382
vt 0.954545 0.236191
vt 1.000000 0.157461
vt 0.681818 0.078731
vt 0.772727 0.078731
vt 0.181819 0.000000
vt 0.909091 0.000000
vt 0.727273 0.000000
vt 0.545455 0.000000
vt 0.363637 0.000000
s 0
f 19/1/1 16/2/1 65/2/1 67/1/1
f 14/3/2 13/4/2 43/4/2 44/3/2
f 12/5/3 17/6/3 66/6/3 63/5/3
f 16/7/4 13/8/4 64/8/4 65/7/4
f 13/4/5 12/9/5 63/9/5 64/4/5
f 1/10/6 15/11/6 22/12/6
f 2/13/7 14/3/7 24/14/7
f 3/15/8 18/16/8 26/17/8
f 4/18/9 20/19/9 28/20/9
f 5/21/10 21/22/10 30/23/10
f 1/10/11 22/12/11 25/24/11
f 2/13/12 24/14/12 27/25/12
f 3/15/13 26/17/13 29/26/13
f 4/18/14 28/20/14 31/27/14
f 5/21/15 30/23/15 23/28/15
f 6/29/16 32/30/16 37/31/16
f 7/32/17 33/33/17 39/34/17
f 8/35/18 34/36/18 40/37/18
f 9/38/19 35/39/19 41/40/19
f 10/41/20 36/42/20 38/43/20
f 38/43/21 41/44/21 11/45/21
f 38/43/22 36/42/22 41/44/22
f 36/42/23 9/38/23 41/44/23
f 41/40/24 40/46/24 11/47/24
f 41/40/25 35/39/25 40/46/25
f 35/39/26 8/35/26 40/46/26
f 40/37/27 39/48/27 11/49/27
f 40/37/28 34/36/28 39/48/28
f 34/36/29 7/50/29 39/48/29
f 39/34/30 37/51/30 11/52/30
f 39/34/31 33/33/31 37/51/31
f 33/33/32 6/29/32 37/51/32
f 37/31/33 38/53/33 11/54/33
f 37/31/34 32/30/34 38/53/34
f 32/30/35 10/41/35 38/53/35
f 23/28/36 36/42/36 10/41/36
f 30/23/37 36/42/37 79/42/37 78/23/37
f 30/23/38 9/38/38 36/42/38
f 31/27/39 35/39/39 9/38/39
f 28/20/40 35/39/40 82/39/40 80/20/40
f 28/20/41 8/35/41 35/39/41
f 29/26/42 34/36/42 8/35/42
f 26/17/43 34/36/43 70/36/43 68/17/43
f 26/17/44 7/50/44 34/36/44
f 27/25/45 33/33/45 7/32/45
f 24/14/46 33/33/46 73/33/46 71/14/46
f 24/14/47 6/29/47 33/33/47
f 25/24/48 32/30/48 6/29/48
f 22/12/49 32/30/49 76/30/49 74/12/49
f 22/12/50 10/41/50 32/30/50
f 30/23/51 31/27/51 9/38/51
f 30/23/52 21/22/52 31/27/52
f 21/22/53 4/18/53 31/27/53
f 28/20/54 29/26/54 8/35/54
f 28/20/55 20/19/55 29/26/55
f 20/19/56 3/15/56 29/26/56
f 26/17/57 27/55/57 7/50/57
f 26/17/58 18/16/58 27/55/58
f 18/16/59 2/56/59 27/55/59
f 24/14/60 25/24/60 6/29/60
f 24/14/61 14/3/61 25/24/61
f 14/3/62 1/10/62 25/24/62
f 22/12/63 23/28/63 10/41/63
f 22/12/64 15/11/64 23/28/64
f 15/11/65 5/21/65 23/28/65
f 15/11/66 16/7/66 60/7/66 59/11/66
f 16/2/67 19/1/67 21/22/67
f 21/22/68 19/1/68 51/1/68 53/22/68
f 20/19/69 4/18/69 50/18/69 52/19/69
f 19/57/70 17/58/70 20/19/70
f 20/19/71 17/58/71 47/58/71 49/19/71
f 18/16/72 3/15/72 46/15/72 48/16/72
f 17/6/73 12/5/73 18/16/73
f 12/9/74 14/3/74 56/3/74 55/9/74
f 16/2/75 21/22/75 61/22/75 60/2/75
f 15/11/76 13/8/76 16/7/76
f 17/58/77 19/57/77 67/57/77 66/58/77
f 14/3/78 2/13/78 54/13/78 56/3/78
f 12/9/79 13/4/79 14/3/79
f 1/10/80 14/3/80 44/3/80 42/10/80
f 42/10/81 43/8/81 45/11/81
f 43/4/82 42/10/82 44/3/82
f 13/8/83 15/11/83 45/11/83 43/8/83
f 15/11/84 1/10/84 42/10/84 45/11/84
f 47/58/85 46/15/85 49/19/85
f 47/6/86 48/16/86 46/15/86
f 3/15/87 20/19/87 49/19/87 46/15/87
f 17/6/88 18/16/88 48/16/88 47/6/88
f 51/1/89 50/18/89 53/22/89
f 51/57/90 52/19/90 50/18/90
f 4/18/91 21/22/91 53/22/91 50/18/91
f 19/57/92 20/19/92 52/19/92 51/57/92
f 55/5/93 54/56/93 57/16/93
f 55/9/94 56/3/94 54/13/94
f 2/56/95 18/16/95 57/16/95 54/56/95
f 18/16/96 12/5/96 55/5/96 57/16/96
f 60/2/97 61/22/97 58/21/97
f 59/11/98 60/7/98 58/21/98
f 5/21/99 15/11/99 59/11/99 58/21/99
f 21/22/100 5/21/100 58/21/100 61/22/100
f 62/59/101 64/4/101 63/9/101
f 62/60/102 63/5/102 66/6/102
f 62/61/103 66/58/103 67/57/103
f 62/62/104 67/1/104 65/2/104
f 64/8/105 62/63/105 65/7/105
f 69/26/106 68/17/106 70/36/106
f 29/26/107 26/17/107 68/17/107 69/26/107
f 34/36/108 29/26/108 69/26/108 70/36/108
f 72/25/109 71/14/109 73/33/109
f 27/25/110 24/14/110 71/14/110 72/25/110
f 33/33/111 27/25/111 72/25/111 73/33/111
f 75/24/112 74/12/112 76/30/112
f 25/24/113 22/12/113 74/12/113 75/24/113
f 32/30/114 25/24/114 75/24/114 76/30/114
f 77/28/115 78/23/115 79/42/115
f 23/28/116 30/23/116 78/23/116 77/28/116
f 36/42/117 23/28/117 77/28/117 79/42/117
f 81/27/118 80/20/118 82/39/118
f 31/27/119 28/20/119 80/20/119 81/27/119
f 35/39/120 31/27/120 81/27/120 82/39/120
