# Blender 4.5.4 LTS
# www.blender.org
mtllib квадратный корабль.mtl
o Cube
v 1.000000 1.000000 -1.000000
v 1.000000 -1.000000 -1.000000
v 1.000000 1.000000 1.000000
v 1.000000 -1.000000 1.000000
v -1.000000 1.000000 -1.000000
v -1.000000 -1.000000 -1.000000
v -1.000000 1.000000 1.000000
v -1.000000 -1.000000 1.000000
v 0.700000 0.704000 2.000000
v 0.700000 -0.704000 2.000000
v -0.700000 0.704000 2.000000
v -0.700000 -0.704000 2.000000
v 0.500000 0.500000 -1.309158
v 0.500000 -0.500000 -1.309158
v -0.500000 0.500000 -1.309158
v -0.500000 -0.500000 -1.309158
v 0.910000 0.915200 -0.444613
v 0.910000 -0.915200 -0.444613
v -0.910000 0.915200 -0.444613
v -0.910000 -0.915200 -0.444613
v 0.546000 0.512512 -0.696601
v 0.546000 -0.512512 -0.696601
v -0.546000 0.512512 -0.696601
v -0.546000 -0.512512 -0.696601
v -1.003317 1.000000 -1.000000
v -2.167360 -1.930921 -1.097955
v -1.003317 1.000000 1.000000
v -1.167360 -1.930921 3.102046
v 1.000244 1.000000 -1.000000
v 2.113981 -1.931912 -1.099213
v 1.000244 1.000000 1.000000
v 1.113981 -1.931912 3.100787
v 1.000000 -0.979303 1.937791
v -1.000000 -0.979303 1.937791
v 0.700000 -0.691115 2.059581
v -0.700000 -0.691115 2.059581
v 1.000000 -2.012992 3.486336
v -1.000000 -2.012992 3.486336
v 0.700000 -1.724804 3.608126
v -0.700000 -1.724804 3.608126
vn -0.0000 1.0000 -0.0000
vn -0.9578 -0.0000 0.2873
vn 0.9967 0.0017 0.0817
vn -0.0000 -1.0000 -0.0000
vn -0.9985 0.0001 0.0543
vn -0.0000 -0.5259 -0.8505
vn -0.0000 -0.9963 -0.0861
vn -0.0000 -0.9998 0.0221
vn -0.0000 0.9589 0.2838
vn 0.9578 -0.0000 0.2873
vn -0.0000 -0.0000 -1.0000
vn -0.0000 0.5259 -0.8505
vn 0.5259 -0.0000 -0.8505
vn -0.5259 -0.0000 -0.8505
vn -0.0000 -0.5305 0.8477
vn 0.9963 -0.0000 -0.0856
vn -0.0000 0.9963 -0.0861
vn -0.9963 -0.0000 -0.0856
vn -0.0000 -0.0000 1.0000
vn 0.5692 -0.0000 0.8222
vn -0.0000 0.5305 0.8477
vn -0.5692 -0.0000 0.8222
vn -0.9511 0.2679 0.1534
vn 0.7415 -0.6603 -0.1196
vn 0.0833 0.0001 -0.9965
vn 0.9552 0.2526 0.1541
vn -0.0887 -0.0000 -0.9961
vn -0.7629 -0.6347 -0.1230
vn 0.7156 0.5810 0.3878
vn -0.0000 0.9774 -0.2114
vn 0.6731 0.7391 -0.0249
vn -0.6731 0.7391 -0.0249
vn -0.0000 -0.3893 0.9211
vn -0.0000 0.8317 0.5552
vn -0.7156 0.5810 0.3878
vn -0.0000 -0.8317 -0.5552
vt 0.625000 0.500000
vt 0.875000 0.500000
vt 0.875000 0.750000
vt 0.625000 0.750000
vt 0.625000 0.000000
vt 0.375000 0.000000
vt 0.125000 0.500000
vt 0.375000 0.500000
vt 0.375000 0.750000
vt 0.125000 0.750000
vt 0.375000 0.250000
vt 0.625000 0.250000
vt 0.625000 1.000000
vt 0.375000 1.000000
s 0
usemtl Material
f 1/1/1 5/2/1 7/3/1 3/4/1
f 7/5/2 8/6/2 12/6/2 11/5/2
f 8/6/3 7/5/3 27/5/3 28/6/3
f 6/7/4 2/8/4 4/9/4 8/10/4
f 3/4/5 4/9/5 32/9/5 31/4/5
f 2/8/6 6/7/6 16/7/6 14/8/6
f 9/4/7 11/3/7 19/3/7 17/4/7
f 8/10/8 4/9/8 33/9/8 34/10/8
f 3/4/9 7/3/9 11/3/9 9/4/9
f 4/9/10 3/4/10 9/4/10 10/9/10
f 16/11/11 15/12/11 13/1/11 14/8/11
f 5/2/12 1/1/12 13/1/12 15/2/12
f 1/1/13 2/8/13 14/8/13 13/1/13
f 6/11/14 5/12/14 15/12/14 16/11/14
f 17/4/15 19/3/15 23/3/15 21/4/15
f 11/5/16 12/6/16 20/6/16 19/5/16
f 12/10/17 10/9/17 18/9/17 20/10/17
f 10/9/18 9/4/18 17/4/18 18/9/18
f 22/9/19 21/4/19 23/13/19 24/14/19
f 19/5/20 20/6/20 24/6/20 23/5/20
f 20/10/21 18/9/21 22/9/21 24/10/21
f 18/9/22 17/4/22 21/4/22 22/9/22
f 28/6/23 27/5/23 25/12/23 26/11/23
f 6/7/24 8/10/24 28/10/24 26/7/24
f 7/3/1 5/2/1 25/2/1 27/3/1
f 5/12/25 6/11/25 26/11/25 25/12/25
f 30/8/26 29/1/26 31/4/26 32/9/26
f 2/8/27 1/1/27 29/1/27 30/8/27
f 4/9/28 2/8/28 30/8/28 32/9/28
f 1/1/1 3/4/1 31/4/1 29/1/1
f 33/9/29 35/9/29 39/9/29 37/9/29
f 10/9/30 12/10/30 36/10/30 35/9/30
f 4/9/31 10/9/31 35/9/31 33/9/31
f 12/6/32 8/6/32 34/6/32 36/6/32
f 38/10/33 37/9/33 39/9/33 40/10/33
f 35/9/34 36/10/34 40/10/34 39/9/34
f 36/6/35 34/6/35 38/6/35 40/6/35
f 34/10/36 33/9/36 37/9/36 38/10/36
